<svg width="111" height="100" viewBox="0 0 111 100" fill="none" xmlns="http://www.w3.org/2000/svg">
<path d="M28.9244 74.588C28.9244 74.1551 28.9244 73.7903 28.9244 73.4255C28.9244 70.2322 28.9135 67.0416 28.9271 63.8483C28.938 61.5098 30.1867 60.2793 32.5181 60.2685C33.3995 60.2657 34.2837 60.2603 35.1651 60.2685C37.2952 60.2902 38.5739 61.5507 38.5902 63.7068C38.6119 66.9327 38.5956 70.1587 38.5956 73.3847C38.5956 73.7522 38.5956 74.1197 38.5956 74.5634H42.105C42.105 74.2041 42.105 73.842 42.105 73.48C42.105 67.1287 42.105 60.7775 42.105 54.429C42.105 52.0388 43.3619 50.7757 45.7287 50.7621C46.5095 50.7593 47.2902 50.7593 48.071 50.7621C50.4786 50.7702 51.7219 51.9925 51.7246 54.3828C51.7328 60.6986 51.7273 67.0171 51.7273 73.333C51.7273 73.7304 51.7273 74.1279 51.7273 74.6424C52.8291 74.6424 53.803 74.6261 54.7797 74.6478C55.9767 74.6723 56.665 75.2468 56.665 76.186C56.665 77.1333 55.9903 77.6941 54.7824 77.6941C40.7693 77.6996 26.7534 77.6996 12.7403 77.6941C11.5079 77.6941 10.8605 77.1524 10.8578 76.1887C10.8578 75.2359 11.5243 74.6751 12.7294 74.6424C13.6435 74.6179 14.5603 74.6233 15.4771 74.607C15.537 74.607 15.5995 74.5553 15.7872 74.4682C15.7872 74.1633 15.7872 73.8012 15.7872 73.4391C15.7872 68.2095 15.7845 62.9799 15.7872 57.7503C15.7872 55.273 16.9924 54.0724 19.468 54.0534C20.3168 54.0479 21.1656 54.0343 22.0117 54.0588C24.1418 54.1214 25.3959 55.4036 25.3986 57.5461C25.4068 62.8438 25.4014 68.1415 25.4014 73.4391C25.4014 73.8039 25.4014 74.1687 25.4014 74.5852H28.9162L28.9244 74.588ZM48.6042 74.5907V53.8955H45.239V74.5907H48.6042ZM18.9348 57.165V74.5907H22.2865V57.165H18.9348ZM32.0474 63.3665V74.5771H35.4535V63.3665H32.0474Z" fill="#50C589"/>
<path d="M103.77 54.6767C105.832 57.9408 107.905 61.2457 110.002 64.5316C110.53 65.3592 110.946 66.184 110.291 67.096C109.646 67.9971 108.756 67.91 107.78 67.6895C102.858 66.5761 97.9317 65.4926 92.9968 64.4445C92.4636 64.3301 91.7944 64.3764 91.3047 64.5996C84.0193 67.9318 76.4863 68.6831 68.6922 66.8619C68.5126 66.8211 68.3304 66.783 68.1481 66.753C68.0774 66.7421 68.0012 66.7612 67.9277 66.7639C67.6693 68.6995 67.4925 70.6514 67.1361 72.5679C64.4374 87.1025 52.1001 98.3839 37.4123 99.8267C31.1253 100.445 25.143 99.4074 19.4164 96.7559C18.924 96.5272 18.2602 96.4537 17.7297 96.5653C12.7213 97.6298 7.72382 98.7405 2.72905 99.8675C1.7796 100.083 0.949865 100.066 0.33504 99.2169C-0.268904 98.3811 0.0521138 97.6189 0.541798 96.8512C2.51958 93.7504 4.45927 90.6279 6.45609 87.5408C6.856 86.9201 6.87232 86.5226 6.42072 85.8965C-7.53255 66.4753 2.35635 39.2111 25.5075 33.2274C31.011 31.8064 36.5227 31.7955 42.0398 33.1594C42.2547 33.2111 42.4723 33.2492 42.6301 33.2819C44.6242 15.1919 53.8847 3.29261 72.2288 0.455933C86.0787 -1.68382 97.5155 3.7663 105.095 15.5785C113.468 28.6294 112.279 41.8191 103.77 54.674V54.6767ZM5.58553 95.5254C9.73696 94.6052 13.5783 93.7858 17.4005 92.8847C18.5186 92.6207 19.4626 92.7541 20.4883 93.2631C26.0298 96.0181 31.8979 97.0063 38.0217 96.1488C54.2411 93.8757 65.6371 79.3275 64.0402 63.0098C62.378 46.017 46.6836 33.5514 29.7705 36.0559C18.4125 37.7383 10.2212 44.0324 5.87935 54.6604C1.49396 65.3918 3.19425 75.5598 10.1097 84.8457C11.1679 86.264 11.2169 86.6152 10.262 88.1288C8.76032 90.5109 7.2559 92.8874 5.58826 95.5281L5.58553 95.5254ZM105.005 63.3991C103.413 60.8837 101.988 58.6268 100.56 56.37C99.2974 54.3773 99.3246 54.3119 100.723 52.458C105.827 45.6903 107.948 38.0677 106.703 29.6938C104.251 13.2237 89.803 2.11656 73.2762 3.80169C58.2755 5.33164 46.3898 18.5105 46.3599 33.6167C46.3599 34.2973 46.5258 34.6349 47.1896 34.9398C58.7815 40.2728 65.5827 49.2538 67.4789 61.8909C67.6067 62.7457 67.9685 62.9935 68.665 63.1731C76.1544 65.0924 83.3773 64.4064 90.3661 61.0606C91.068 60.723 92.0229 60.6033 92.7873 60.753C96.781 61.5479 100.75 62.4653 105.005 63.3991Z" fill="#50C589"/>
<path d="M90.9238 21.5349V24.9732H62.5221V21.5349H90.9238Z" fill="#50C589"/>
<path d="M90.9211 32.2336V35.6611H62.5086V32.2336H90.9211Z" fill="#50C589"/>
<path d="M90.9238 42.957V46.3981H69.6579V42.957H90.9238Z" fill="#50C589"/>
</svg>
