<svg width="103" height="100" viewBox="0 0 103 100" fill="none" xmlns="http://www.w3.org/2000/svg">
<path d="M101.5 47.0362C101.096 47.8168 100.459 48.083 99.5851 48.0778C95.3328 48.0491 91.0805 48.0674 86.8282 48.0622C85.6177 48.0622 84.9212 47.5113 84.929 46.6002C84.9368 45.6865 85.6386 45.1331 86.8465 45.1305C91.0335 45.1227 95.2206 45.1435 99.4077 45.1148C100.287 45.1096 100.983 45.342 101.5 46.0572V47.0362Z" fill="#50C589"/>
<path d="M32.1249 72.3195C32.3649 74.87 32.5893 77.3031 32.8215 79.7361C32.9545 81.1302 33.2154 81.386 34.6085 81.5453C37.3372 81.8559 39.2469 83.9157 39.2573 86.5602C39.2677 89.2073 37.3555 91.3949 34.6424 91.5751C32.5371 91.7134 30.4031 91.7369 28.3057 91.5437C23.4534 91.0999 20.3568 87.5261 20.075 82.3624C19.8272 77.7887 19.1385 73.288 17.5315 68.9702C16.6366 66.5711 15.4549 64.3234 13.7357 62.415C13.2609 61.8877 12.5878 61.5013 11.9435 61.1776C10.6104 60.5067 9.17556 60.029 7.89204 59.2824C4.27107 57.173 2.33014 53.9046 1.73795 49.7982C1.3675 47.2268 1.41446 44.6554 1.98578 42.1153C3.11538 37.0821 6.46504 34.1087 11.0982 32.37C15.0349 30.8924 19.1515 30.2607 23.3125 30.0257C28.4752 29.736 33.6589 29.7803 38.8112 29.3888C49.2959 28.5925 58.75 25.0239 66.9311 18.286C67.7138 17.6412 68.2825 16.9546 68.559 15.8686C69.3129 12.8978 72.3026 11.0443 75.3836 11.4254C78.3654 11.7909 80.6976 14.3493 80.8333 17.4063C80.8463 17.6986 80.8489 17.9936 80.8489 18.286C80.8489 37.1761 80.8385 56.0661 80.862 74.9562C80.8646 77.3031 80.1498 79.248 78.235 80.6525C74.7183 83.2317 69.6364 81.4826 68.5225 77.2613C68.2773 76.332 67.8155 75.7054 67.1425 75.1311C61.2023 70.0614 54.3386 66.8608 46.7914 65.0674C45.1557 64.6784 43.4913 64.4121 41.7591 64.0754C40.7104 69.4583 36.9042 71.4841 32.1249 72.3248V72.3195ZM34.9163 32.5736C34.9163 34.5264 34.9267 36.3799 34.9111 38.2334C34.9033 39.2202 34.3267 39.878 33.4997 39.9041C32.6467 39.9328 32.0153 39.2436 31.9893 38.2229C31.971 37.4397 31.984 36.6566 31.984 35.8734C31.984 34.7822 31.984 33.6884 31.984 32.4066C28.0135 32.6963 24.2177 32.913 20.4324 33.2707C17.2862 33.5683 14.2027 34.2183 11.2678 35.4635C7.73291 36.9646 5.33805 39.4421 4.72499 43.3448C4.50846 44.7206 4.44063 46.1382 4.47194 47.5348C4.58933 52.8082 6.97376 56.1288 11.8913 58.011C15.8566 59.5304 20.0202 60.0133 24.2073 60.3292C26.7587 60.5198 29.3231 60.5694 31.984 60.6868C31.984 59.8776 31.984 59.2014 31.984 58.5227C31.984 53.8889 31.9788 49.2578 31.9893 44.624C31.9919 43.3527 32.8475 42.5982 33.891 42.9428C34.7415 43.2221 34.9215 43.9087 34.9189 44.7337C34.9033 49.6937 34.9111 54.6512 34.9137 59.6113C34.9137 59.9533 34.9424 60.2979 34.9607 60.6868C41.0234 60.7808 46.8332 61.7363 52.4864 63.6316C58.1683 65.5373 63.3754 68.3306 68.1833 72.142V21.1054C58.3692 28.7883 47.2375 32.2447 34.9085 32.5736H34.9163ZM77.9193 46.6524C77.9193 39.3768 77.9193 32.0985 77.9193 24.8229C77.9193 22.3768 77.948 19.9281 77.8932 17.482C77.8567 15.866 76.6045 14.5529 75.0549 14.3467C73.3748 14.1248 71.8017 15.0829 71.3452 16.6857C71.1965 17.2052 71.1913 17.7796 71.1913 18.3304C71.1834 37.1917 71.186 56.0505 71.186 74.9118C71.186 75.2381 71.1834 75.5645 71.2121 75.8908C71.3921 77.914 73.3905 79.3158 75.3522 78.8068C77.0219 78.3734 77.9167 77.1151 77.9167 75.1389C77.9219 65.6443 77.9167 56.1471 77.9193 46.6524ZM17.868 62.6291C18.7993 64.7515 19.8506 66.8112 20.6176 68.9702C22.1594 73.3011 22.762 77.8252 23.0177 82.3989C23.2394 86.3618 25.6708 88.6852 29.6231 88.693C31.0553 88.693 32.4875 88.706 33.9198 88.6904C35.3728 88.6747 36.2755 87.902 36.3224 86.675C36.372 85.3906 35.5241 84.5761 34.0137 84.4534C31.8275 84.2759 30.2414 82.7905 29.9935 80.6263C29.7796 78.7467 29.6649 76.8567 29.4353 74.9797C28.997 71.4163 28.3213 67.9051 27.1291 64.5009C26.8448 63.689 26.4378 63.3809 25.6082 63.3601C24.4056 63.3313 23.2055 63.2139 22.0081 63.0964C20.5968 62.958 19.1906 62.7779 17.868 62.6265V62.6291ZM30.0379 63.7073C30.5362 65.5373 31.0449 67.4064 31.5562 69.273C34.478 69.3122 38.6781 67.0958 38.6208 63.7073H30.0405H30.0379Z" fill="#50C589"/>
<path d="M98.3903 9.7023C98.0643 10.2375 97.8999 10.676 97.5999 10.9815C94.5085 14.1116 91.4015 17.226 88.2866 20.3299C87.5144 21.1 86.6848 21.1314 86.0509 20.4892C85.4482 19.8783 85.503 18.9881 86.2413 18.2415C89.3405 15.1192 92.4502 12.01 95.5572 8.89564C96.0607 8.3918 96.6764 8.10725 97.3103 8.50144C97.7303 8.7625 98.0042 9.26112 98.3903 9.70492V9.7023Z" fill="#50C589"/>
<path d="M98.3929 83.4481C98.0329 83.9128 97.8059 84.461 97.412 84.6437C97.0103 84.8317 96.4337 84.709 95.9511 84.6202C95.732 84.5811 95.5494 84.3096 95.3641 84.1242C92.3484 81.1038 89.3405 78.0781 86.3195 75.0655C85.7326 74.4808 85.4117 73.8568 85.8134 73.0632C86.2778 72.1443 87.3761 72.0112 88.2031 72.8048C89.4474 74.0004 90.6501 75.2404 91.8684 76.4648C93.731 78.3314 95.6041 80.1901 97.4485 82.0775C97.7955 82.4299 98.0225 82.8998 98.3955 83.4455L98.3929 83.4481Z" fill="#50C589"/>
</svg>
