<svg width="100" height="100" viewBox="0 0 100 100" fill="none" xmlns="http://www.w3.org/2000/svg">
<g clip-path="url(#clip0_2073_2)">
<path d="M99.878 17.3754C99.3003 18.102 98.7954 18.9015 98.1344 19.5422C93.7493 23.7975 89.3329 28.0216 84.9192 32.2482C83.4956 33.6102 81.8066 33.7352 80.7292 32.4462C80.3076 31.9409 80.0578 31.1883 79.9771 30.519C79.8522 29.493 79.9302 28.4408 79.9433 27.3991C79.9485 26.9434 79.8626 26.6621 79.3135 26.6648C76.0032 26.683 72.6903 26.6778 69.38 26.6882C69.2993 26.6882 69.2186 26.7533 69.039 26.834C76.1047 32.9852 79.9042 40.6833 79.8964 50.0221C79.8886 59.3349 76.0995 67.0096 68.8465 73.3248H70.2101C75.86 73.3248 81.5073 73.3248 87.1572 73.3248C89.096 73.3248 89.9236 73.8379 89.9028 75.0228C89.882 76.1739 89.0727 76.6713 87.2041 76.6713C79.7039 76.6713 72.2062 76.6608 64.706 76.6895C64.0554 76.6921 63.3553 76.8588 62.7593 77.1296C54.2441 80.9709 45.7498 80.9682 37.2398 77.1114C36.6725 76.8536 36.0062 76.6947 35.3868 76.6895C29.9659 76.6582 24.5424 76.6739 19.1215 76.6687C17.2556 76.6687 16.7508 76.1556 16.7455 74.2936C16.7455 73.2206 16.7455 72.1503 16.7455 70.7805C12.3162 75.0592 8.06378 79.1661 3.71249 83.3694C8.00652 87.4919 12.2615 91.5779 16.6362 95.7785C16.683 95.4243 16.7377 95.1952 16.7403 94.966C16.7507 93.9582 16.7273 92.9477 16.7508 91.9399C16.782 90.6195 17.3727 90.044 18.6739 90.0154C18.8691 90.0102 19.0643 90.0154 19.2595 90.0154C41.984 90.0154 64.7112 90.0154 87.4357 90.0154C89.0987 90.0154 89.9158 90.5675 89.9028 91.6821C89.8924 92.7941 89.0675 93.3462 87.4123 93.3462C65.4347 93.3462 43.4544 93.3462 21.4768 93.3462H20.0741C20.0741 94.3696 20.0116 95.341 20.087 96.2994C20.2224 98.0051 19.6654 99.2812 18.0597 100H16.6961C16.0506 99.526 15.3428 99.1172 14.7651 98.5677C10.3383 94.354 5.935 90.1169 1.52907 85.8824C-0.339487 84.0881 -0.329123 82.6636 1.54724 80.8485C6.05467 76.4864 10.5674 72.1295 15.0644 67.7544C16.0351 66.809 17.1047 66.3481 18.4085 66.9106C19.6681 67.4549 20.1105 68.5122 20.0792 69.8378C20.0532 70.9393 20.0741 72.0409 20.0741 73.2363H31.0616C23.9569 67.0851 20.1339 59.4026 20.1157 50.0742C20.0975 40.7146 23.884 33.0087 31.1032 26.7429C30.6218 26.7142 30.299 26.6778 29.9763 26.6778C24.1651 26.6752 18.3538 26.6778 12.5426 26.6752C10.9108 26.6752 10.0755 26.0814 10.1119 24.959C10.1458 23.8678 10.9395 23.3313 12.5374 23.3313C20.1027 23.3313 27.6654 23.3444 35.2307 23.3105C35.9464 23.3079 36.7115 23.1308 37.3647 22.8365C45.82 19.0448 54.2545 19.05 62.7047 22.8548C63.3293 23.136 64.0606 23.3053 64.745 23.3105C70.1008 23.347 75.4593 23.3287 80.8151 23.3313C82.8008 23.3313 83.2666 23.8105 83.2692 25.8288C83.2692 26.8653 83.2692 27.9018 83.2692 29.2221C87.7168 24.9538 91.9848 20.8599 96.3048 16.714C91.99 12.542 87.7428 8.43511 83.3785 4.21365C83.3317 4.57824 83.277 4.81002 83.2744 5.0418C83.264 6.04964 83.29 7.06008 83.264 8.06792C83.2301 9.38826 82.6368 9.95859 81.3356 9.98463C81.1404 9.98724 80.9452 9.98463 80.75 9.98463C58.0255 9.98463 35.301 9.98463 12.5738 9.98463C10.9109 9.98463 10.0963 9.43254 10.1093 8.31792C10.1223 7.20852 10.9499 6.65642 12.6024 6.65642C34.5801 6.65642 56.5603 6.65642 78.538 6.65642H79.938C79.938 5.5991 80.0006 4.59647 79.9251 3.60426C79.7924 1.91932 80.4039 0.708352 81.9549 0C82.4104 0 82.8632 0 83.3186 0C83.9432 0.447928 84.6329 0.828146 85.182 1.35681C89.4916 5.48452 93.7857 9.62785 98.0563 13.7972C98.7355 14.4613 99.2742 15.2738 99.878 16.016V17.3833V17.3754ZM49.9813 76.6634C64.6045 76.7129 76.4898 64.8402 76.6018 50.0742C76.7111 35.4254 64.7346 23.373 50.0282 23.3313C35.3998 23.2897 23.5145 35.165 23.4156 49.9232C23.3167 64.5954 35.2593 76.614 49.9813 76.6634Z" fill="#50C589"/>
<path d="M99.878 83.7833C99.4382 84.6609 98.7538 85.002 97.7545 84.9942C91.977 84.9604 86.1996 84.9786 80.4222 84.9786C80.2608 84.9786 80.0968 84.9838 79.9355 84.9734C78.9804 84.9109 78.3116 84.2781 78.2726 83.3952C78.2309 82.4942 78.9154 81.7311 79.8939 81.666C80.6382 81.6165 81.3851 81.6478 82.132 81.6478C87.2614 81.6478 92.3882 81.6686 97.5176 81.6296C98.556 81.6217 99.3523 81.8848 99.878 82.8041V83.7807V83.7833Z" fill="#50C589"/>
<path d="M10.9968 18.3365C8.01697 18.3365 5.03454 18.3521 2.05475 18.3313C0.553137 18.3209 -0.370695 16.9901 0.399628 15.8781C0.698909 15.4484 1.38596 15.0525 1.90124 15.0473C7.9285 14.99 13.9558 15.0031 19.983 15.0161C21.0396 15.0161 21.7631 15.7427 21.7501 16.6828C21.7371 17.6099 21.0006 18.3209 19.944 18.3287C16.9642 18.3495 13.9818 18.3365 11.002 18.3365H10.9968Z" fill="#50C589"/>
<path d="M59.1862 46.2252C60.6097 43.3657 61.9213 40.6834 63.285 38.027C63.5244 37.5609 63.92 36.9671 64.3468 36.863C64.8855 36.7301 65.6402 36.8786 66.1087 37.1963C66.7671 37.639 66.7593 38.4307 66.4131 39.1391C65.5309 40.949 64.6253 42.7459 63.7275 44.548C62.9597 46.0898 62.2206 47.6445 61.406 49.1601C61.0703 49.7826 61.1198 50.2643 61.4295 50.8737C63.0768 54.116 64.6825 57.3791 66.2934 60.6422C66.7931 61.6527 66.65 62.4756 65.9291 63.0069C65.0521 63.6527 63.9278 63.3194 63.3605 62.1943C62.1139 59.7307 60.8986 57.2541 59.665 54.7853C59.5245 54.5014 59.3631 54.2306 59.1263 53.7957C58.5147 55.0093 57.9682 56.09 57.4269 57.176C56.6306 58.775 55.842 60.3792 55.0431 61.9756C54.4159 63.2282 53.5259 63.6371 52.5682 63.1345C51.6521 62.6527 51.4543 61.7073 52.0477 60.5146C53.6664 57.2567 55.2773 53.9962 56.9273 50.7565C57.2109 50.1992 57.2005 49.7773 56.9194 49.2253C55.2617 45.9517 53.6456 42.6574 52.0087 39.3708C51.6313 38.613 51.5428 37.8682 52.1596 37.2015C52.9845 36.303 54.317 36.5817 54.9416 37.8109C56.1778 40.2406 57.3775 42.6912 58.5954 45.1314C58.7515 45.4413 58.9233 45.7434 59.1862 46.2304V46.2252Z" fill="#50C589"/>
<path d="M36.7582 40.0089V48.2644C37.1225 48.2852 37.4635 48.3164 37.8044 48.3191C40.628 48.3243 43.4517 48.3243 46.2753 48.3191C47.1888 48.3191 47.9695 48.5482 48.2532 49.5352C48.5889 50.7019 47.7952 51.6421 46.4211 51.6551C43.8889 51.6811 41.3567 51.6629 38.8271 51.6655C38.1791 51.6655 37.5312 51.6655 36.727 51.6655C36.727 52.0639 36.727 52.4077 36.727 52.7489C36.727 55.5146 36.7322 58.2803 36.7218 61.0459C36.7218 61.4314 36.7036 61.8376 36.5839 62.197C36.3106 63.0095 35.6912 63.3793 34.8454 63.2804C34.0412 63.1866 33.5598 62.7022 33.4401 61.8975C33.3932 61.5772 33.4089 61.2491 33.4089 60.9236C33.4089 53.6343 33.4089 46.345 33.4089 39.0558C33.4089 37.1026 33.846 36.6755 35.8265 36.6755C39.3632 36.6755 42.9026 36.6651 46.4393 36.6807C47.8003 36.6859 48.6045 37.6313 48.2558 38.7954C47.9799 39.7173 47.2642 40.0089 46.3716 40.0063C43.548 40.0011 40.7244 40.0063 37.9007 40.0063C37.552 40.0063 37.2006 40.0063 36.766 40.0063L36.7582 40.0089Z" fill="#50C589"/>
</g>
<defs>
<clipPath id="clip0_2073_2">
<rect width="100" height="100" fill="white"/>
</clipPath>
</defs>
</svg>
