<svg width="110" height="100" viewBox="0 0 110 100" fill="none" xmlns="http://www.w3.org/2000/svg">
<g clip-path="url(#clip0_2073_37)">
<path d="M93.391 58.6063C94.3858 61.0033 95.3262 63.3146 96.3152 65.6058C96.4295 65.8661 96.7869 66.1235 97.0756 66.1893C98.0303 66.4096 98.6763 66.953 99.0393 67.8369C102.241 75.5858 105.488 83.3176 108.607 91.1008C110.224 95.1369 108.292 99.0042 104.43 99.8623C101.601 100.492 98.7649 98.9298 97.3929 95.8749C96.3695 93.598 95.4605 91.2696 94.5058 88.9612C92.2819 83.5864 90.0266 78.226 87.877 72.8227C87.5797 72.0761 87.797 71.1207 87.7798 70.2597C87.7741 69.9937 87.8599 69.6962 87.7684 69.4674C86.8365 67.1504 85.8818 64.842 84.9214 62.5365C84.8585 62.3878 84.7213 62.2705 84.4755 61.9616C84.4126 62.4135 84.3468 62.6681 84.3468 62.9256C84.3354 64.2471 84.2782 65.5743 84.3554 66.893C84.4812 69.024 83.5522 70.6144 81.9829 71.9102C79.7104 73.7866 77.0263 74.845 74.2679 75.7288C68.1908 77.6711 61.9193 78.595 55.5907 79.1442C47.0467 79.8851 38.4913 79.9194 29.9474 79.1614C22.6955 78.5178 15.4836 77.5652 8.64897 74.8793C6.78239 74.1442 4.99871 73.1001 3.33222 71.9702C1.59714 70.7832 0.825352 69.0297 0.831068 66.8157C0.876804 48.9037 0.888238 30.9917 0.819635 13.0797C0.811059 10.5453 1.81438 8.76328 3.74384 7.35595C6.43938 5.39083 9.52652 4.29243 12.7023 3.43144C23.0128 0.639655 33.5548 -0.0840342 44.174 0.00749965C53.464 0.0847313 62.7054 0.788397 71.7067 3.24837C74.5366 4.02069 77.295 5.16772 79.9419 6.44633C81.294 7.09851 82.3202 8.42575 83.515 9.42404C83.8237 9.68148 84.1896 9.93892 84.5698 10.0247C97.6272 12.9109 106.403 24.1667 105.7 37.5078C105.245 46.0919 101.306 52.8969 94.3429 57.9312C94.057 58.1372 93.7683 58.3403 93.391 58.6092V58.6063ZM3.85247 53.7865V54.9964C3.85247 58.9295 3.90392 62.8626 3.82388 66.7929C3.79815 68.0944 4.24693 69.0698 5.26455 69.7019C6.67949 70.5829 8.12587 71.4697 9.66944 72.0646C16.1782 74.5818 23.0242 75.5429 29.9217 76.1436C39.7148 76.9932 49.5079 76.9045 59.2781 75.7288C64.6263 75.0852 69.9344 74.2014 74.9968 72.2763C76.6461 71.6499 78.2268 70.7803 79.7275 69.8449C80.3993 69.4273 81.1568 68.6149 81.2511 67.8998C81.4741 66.1893 81.3226 64.433 81.3226 62.6567C80.6537 62.6567 80.0906 62.6538 79.5246 62.6567C75.1283 62.691 70.9721 61.7042 67.0903 59.6418C66.2813 59.2127 65.5353 59.1383 64.6549 59.2499C60.5558 59.7648 56.4596 60.3941 52.3435 60.663C42.0015 61.338 31.6739 61.0749 21.4206 59.4158C15.3635 58.4347 9.37216 57.1904 3.85247 53.7893V53.7865ZM79.0244 9.11225C77.3379 8.40859 75.7686 7.63627 74.1278 7.08707C66.5929 4.56417 58.7779 3.53155 50.8942 3.27125C44.4884 3.05672 38.0626 3.19974 31.6567 3.45432C25.3796 3.70318 19.1796 4.69289 13.1225 6.43203C10.2411 7.25869 7.38267 8.19692 5.02444 10.162C3.46657 11.4607 3.38368 12.6649 4.99871 13.8577C6.44223 14.9247 8.05727 15.8457 9.72661 16.495C16.2668 19.0408 23.1585 19.9733 30.0903 20.574C38.9916 21.3435 47.8985 21.2977 56.7969 20.4281C57.5859 20.3509 58.0804 20.0791 58.5635 19.4756C61.785 15.4395 65.8154 12.4818 70.7405 10.9515C73.3617 10.1363 76.1144 9.74155 79.0244 9.11225ZM62.1966 56.6784C62.1366 56.4839 62.1394 56.3952 62.0965 56.358C57.7974 52.6166 54.9361 47.9855 53.4954 42.462C53.4382 42.2446 53.0123 41.9815 52.7579 41.9843C51.5831 41.9872 50.4083 42.0844 49.2306 42.1331C39.1545 42.5536 29.127 42.1417 19.1881 40.3253C13.9171 39.3613 8.72901 38.1142 4.09829 35.2251C4.05827 35.2023 3.96966 35.2595 3.85532 35.2909C3.85532 39.5301 3.90392 43.7835 3.82674 48.0341C3.80387 49.4157 4.29267 50.4369 5.39318 51.0977C6.82241 51.9558 8.27737 52.8282 9.82666 53.4175C16.484 55.9575 23.4787 56.8872 30.5191 57.4879C38.6743 58.183 46.8352 58.1544 54.9904 57.4736C57.3915 57.2733 59.7812 56.9473 62.1994 56.6784H62.1966ZM3.85247 16.9184C3.85247 20.9602 3.9668 24.8561 3.80387 28.7377C3.71812 30.7514 4.52135 31.9986 6.11923 32.9339C6.76524 33.3115 7.3941 33.7606 8.09157 33.9923C11.1273 34.9963 14.1344 36.1748 17.2472 36.847C28.7583 39.3384 40.4265 39.6388 52.1434 38.9895C52.3749 38.978 52.6007 38.8893 52.8808 38.8236C52.3234 33.4574 53.3897 28.4373 55.7822 23.6347C55.1933 23.6347 54.7674 23.6061 54.3472 23.6375C43.7195 24.4527 33.1146 24.2811 22.564 22.7079C16.1096 21.7439 9.71518 20.4968 3.85247 16.9127V16.9184ZM79.2788 59.7162C92.2791 59.7018 102.767 49.1554 102.77 36.0918C102.77 23.0082 92.1962 12.4275 79.1501 12.459C66.1756 12.4904 55.645 23.0883 55.6478 36.1147C55.6507 49.1983 66.1956 59.7305 79.2759 59.7162H79.2788ZM90.7098 71.6871C90.7526 71.9216 90.7555 72.0332 90.7955 72.1304C93.8598 79.5504 96.9184 86.9732 100.011 94.3817C100.266 94.9939 100.666 95.5831 101.129 96.0579C102.026 96.9818 103.147 97.2622 104.362 96.7387C105.562 96.2238 106.217 95.2513 106.145 93.9527C106.103 93.1517 105.894 92.3251 105.588 91.5814C102.658 84.4131 99.6968 77.262 96.7383 70.1052C96.6354 69.8564 96.4867 69.6247 96.3381 69.3386C94.4401 70.1281 92.6049 70.8919 90.7126 71.6813L90.7098 71.6871ZM87.6684 61.3037C88.6717 63.7322 89.635 66.0577 90.6269 68.4576C91.6616 68.0228 92.6278 67.6167 93.6854 67.1704C92.685 64.7448 91.7245 62.4221 90.7498 60.0651C89.7122 60.4827 88.766 60.8632 87.6684 61.3008V61.3037Z" fill="#50C589"/>
<path d="M16.3611 65.0566C16.3525 66.3953 15.5179 67.1133 14.5403 66.873C13.1225 66.5269 11.719 66.1178 10.3326 65.6659C9.44076 65.3741 9.04915 64.5961 9.32071 63.8266C9.63514 62.9428 10.2869 62.6081 11.1816 62.8398C12.5593 63.2002 13.9543 63.5263 15.2835 64.0212C15.7866 64.2071 16.1296 64.8249 16.3611 65.0566Z" fill="#50C589"/>
<path d="M22.2438 68.449C21.1233 68.2516 19.7112 68.0514 18.3249 67.7339C17.4988 67.5451 17.05 66.9015 17.2158 66.0377C17.3787 65.1967 17.9761 64.7104 18.8423 64.822C20.2172 64.9993 21.5892 65.2396 22.9499 65.5171C23.836 65.6973 24.3477 66.4524 24.1704 67.2448C23.9789 68.0972 23.4101 68.4976 22.2467 68.4461L22.2438 68.449Z" fill="#50C589"/>
<path d="M30.2761 69.4989C29.187 69.3759 27.9122 69.2557 26.6459 69.0755C25.7798 68.9525 25.3424 68.369 25.3538 67.5109C25.3653 66.6985 26.0656 66.0606 26.9403 66.1178C28.2866 66.2065 29.6301 66.3581 30.9679 66.5412C31.834 66.6613 32.3799 67.4308 32.2599 68.2174C32.1341 69.0498 31.4595 69.5303 30.279 69.496L30.2761 69.4989Z" fill="#50C589"/>
<path d="M15.1205 48.8407C13.2368 48.2686 11.6161 47.8424 10.0496 47.2732C9.36073 47.0215 9.07774 46.335 9.31785 45.577C9.56654 44.7903 10.1582 44.3527 10.95 44.5386C12.4707 44.8933 13.9829 45.3167 15.4664 45.8087C16.2239 46.0604 16.6412 46.764 16.3154 47.5192C16.0838 48.0541 15.5036 48.4374 15.1205 48.8407Z" fill="#50C589"/>
<path d="M18.7908 46.5523C20.2686 46.8012 21.6464 46.99 23.0042 47.2789C23.836 47.4562 24.3019 48.0655 24.1704 48.9379C24.0418 49.7961 23.4587 50.2995 22.5926 50.1937C21.1462 50.0135 19.6969 49.7875 18.2791 49.4614C17.4588 49.2726 17.0357 48.6004 17.2329 47.7365C17.4245 46.8899 18.0333 46.5094 18.7908 46.5552V46.5523Z" fill="#50C589"/>
<path d="M30.5448 51.2579C29.2385 51.1178 27.9264 51.0119 26.6258 50.8203C25.7712 50.6944 25.2967 50.0966 25.3624 49.2384C25.431 48.386 25.9827 47.8254 26.8488 47.874C28.2666 47.9513 29.6873 48.0914 31.0851 48.326C31.9226 48.4661 32.3399 49.1183 32.2427 49.985C32.1513 50.7888 31.4595 51.2779 30.5419 51.2579H30.5448Z" fill="#50C589"/>
<path d="M16.4154 28.5088C16.4154 29.856 15.555 30.5911 14.5917 30.3594C13.1425 30.0076 11.7018 29.6014 10.2811 29.138C9.41503 28.8549 9.03485 28.0282 9.33785 27.2645C9.67515 26.4063 10.3183 26.0774 11.2187 26.3262C12.5565 26.6952 13.9171 27.0042 15.212 27.4876C15.7551 27.6907 16.1553 28.2771 16.4154 28.5116V28.5088Z" fill="#50C589"/>
<path d="M22.3868 31.9586C21.1062 31.7327 19.7312 31.5296 18.3735 31.2349C17.5359 31.0519 17.07 30.4312 17.2101 29.573C17.3587 28.6777 17.979 28.1943 18.9051 28.323C20.2801 28.5147 21.655 28.7292 23.0128 29.021C23.8446 29.1983 24.3105 29.8133 24.1704 30.6857C24.0247 31.6011 23.3901 31.9958 22.3868 31.9586Z" fill="#50C589"/>
<path d="M30.7935 33.017C29.2299 32.854 27.9922 32.7481 26.7573 32.5908C25.8541 32.4764 25.3481 31.9243 25.351 31.0061C25.3567 30.1938 26.0399 29.5616 26.9289 29.6188C28.3095 29.7075 29.693 29.8419 31.0593 30.0593C31.9054 30.1938 32.3285 30.8317 32.2485 31.6955C32.1684 32.5393 31.4281 33.0485 30.7935 33.0142V33.017Z" fill="#50C589"/>
<path d="M79.2759 16.209C90.2124 16.2319 99.0822 25.1364 99.0765 36.0804C99.0708 47.0016 90.1324 55.949 79.2387 55.9347C68.268 55.9204 59.4182 46.9644 59.4725 35.9374C59.5239 25.0163 68.3909 16.1861 79.2759 16.209ZM79.2788 52.691C88.5459 52.6538 95.9665 45.1623 95.9379 35.8688C95.9093 26.6353 88.443 19.1896 79.2359 19.2153C69.9802 19.2411 62.5139 26.7583 62.5453 36.0204C62.5768 45.1966 70.1345 52.7282 79.2788 52.691Z" fill="#50C589"/>
</g>
<defs>
<clipPath id="clip0_2073_37">
<rect width="110" height="100" fill="white"/>
</clipPath>
</defs>
</svg>
