<svg width="101" height="100" viewBox="0 0 101 100" fill="none" xmlns="http://www.w3.org/2000/svg">
<path d="M75.0535 100C73.8199 99.7527 72.5708 99.5652 71.3529 99.2527C60.6389 96.5079 53.4017 86.7188 53.8467 75.6016C54.2813 64.711 62.4137 55.5131 73.2344 53.672C86.3061 51.4506 98.67 60.7058 100.198 73.8569C100.226 74.1095 100.317 74.3569 100.38 74.6069V78.7084C100.32 78.9584 100.231 79.2032 100.203 79.4584C99.1307 88.6615 92.5987 96.4298 83.6856 99.0209C82.2022 99.4532 80.6616 99.6772 79.147 99.9975H75.0561L75.0535 100ZM97.0565 76.6563C97.0071 65.6355 88.0575 56.6303 77.19 56.6642C66.0024 56.7006 57.1075 65.6694 57.1517 76.8751C57.1933 87.7761 66.234 96.6954 77.216 96.6719C88.1096 96.6485 97.106 87.573 97.0565 76.6563Z" fill="#50C589"/>
<path d="M25.9649 0C26.9798 0.192708 27.9999 0.359375 29.0097 0.580729C39.8486 2.95573 47.4917 12.8672 47.182 24.138C46.8802 35.0911 38.6514 44.5208 27.8256 46.3203C14.884 48.4713 2.87663 39.7474 0.883207 26.7422C-1.08939 13.8776 8.26352 1.60677 21.1271 0.174479C21.3795 0.145833 21.6267 0.0598958 21.8765 0C23.2402 0 24.6039 0 25.9675 0H25.9649ZM3.96441 23.4062C3.93839 34.3515 12.966 43.3411 23.9845 43.3411C34.8286 43.3411 43.838 34.3281 43.8666 23.4531C43.8952 12.4427 34.9821 3.35677 24.1302 3.33073C12.9244 3.30208 3.99043 12.1953 3.96441 23.4062Z" fill="#50C589"/>
<path d="M85.3953 33.3125C87.0114 33.5261 88.1148 34.2813 88.5676 35.7787C89.0204 37.2813 88.4687 38.4844 87.3809 39.5495C84.8488 42.0261 82.3584 44.5469 79.8419 47.0417C78.0826 48.7865 76.1309 48.7839 74.3664 47.0313C71.85 44.5391 69.3595 42.0183 66.8274 39.5391C65.7682 38.5026 65.2191 37.3412 65.6146 35.862C65.9712 34.5209 66.8768 33.763 68.6776 33.2969C68.5683 32.6875 68.5111 32.0469 68.3368 31.4427C66.5541 25.2735 62.4554 21.6771 56.1888 20.5078C53.1337 19.9375 51.4448 17.2683 52.4597 14.5599C53.0556 12.9662 54.2267 11.8204 55.8948 11.7683C60.0664 11.6355 64.2588 11.375 68.3732 12.5105C77.2707 14.9636 84.1253 22.8646 85.2079 32C85.2574 32.4167 85.325 32.8334 85.3927 33.3125H85.3953ZM85.1897 36.7474C84.8931 36.7344 84.5756 36.7162 84.2555 36.7032C82.642 36.638 82.1476 36.1042 82.0669 34.5C81.6661 26.586 77.9161 20.7969 70.9677 17.073C66.3667 14.6068 61.3624 14.974 56.4101 15.0756C56.1134 15.0808 55.6007 15.6381 55.5929 15.948C55.5851 16.3282 55.9234 16.8308 56.2591 17.0703C56.6 17.3099 57.1205 17.2995 57.5655 17.3828C65.8098 18.9532 72.0451 26.3203 72.1154 34.5729C72.1284 36.0313 71.5273 36.6537 70.0699 36.6823C69.703 36.6901 69.3361 36.6823 68.9665 36.6823C69.0446 36.6589 69.1226 36.638 69.2033 36.6146C71.8707 39.3698 74.5382 42.1276 77.2291 44.9063C79.8549 42.2136 82.5015 39.4974 85.1871 36.7448L85.1897 36.7474Z" fill="#50C589"/>
<path d="M15.6205 66.7264C12.9869 66.1431 11.6831 64.1666 12.5211 62.052C12.7293 61.5259 13.0962 61.0285 13.497 60.6249C16.0551 58.0363 18.6392 55.4738 21.226 52.9113C22.9358 51.2186 24.898 51.2291 26.6311 52.9452C29.08 55.3697 31.4065 57.9296 33.9881 60.2004C36.3094 62.2447 36.0674 65.854 32.372 66.7421C32.5281 68.7447 33.1839 70.5988 34.2014 72.3124C36.6242 76.3983 40.2494 78.7082 44.8972 79.5103C47.9264 80.0311 49.5971 82.8202 48.5353 85.5077C47.9264 87.0467 46.7761 88.177 45.147 88.229C41.0405 88.3592 36.9157 88.6327 32.8586 87.5337C23.7425 85.065 16.9555 77.2968 15.8027 67.9296C15.7558 67.5442 15.6882 67.1587 15.6231 66.7291L15.6205 66.7264ZM15.8807 63.302C16.1436 63.302 16.4689 63.2916 16.7916 63.302C18.392 63.3619 18.9099 63.9009 18.9489 65.5285C19.1337 73.4712 24.1277 80.5884 31.4924 83.591C35.7317 85.3202 40.1479 84.9712 44.5433 84.9296C44.8608 84.927 45.4307 84.3332 45.4229 84.0259C45.4125 83.6275 45.0195 83.065 44.6474 82.8931C44.015 82.604 43.2655 82.5858 42.5733 82.4191C34.839 80.5728 29.08 73.479 28.9082 65.591C28.8718 63.9296 29.4391 63.3358 31.076 63.315C31.4065 63.3098 31.737 63.2863 31.9192 63.2759C29.2439 60.5363 26.5765 57.8046 23.8986 55.0624C21.239 57.7942 18.5794 60.5311 15.886 63.2968L15.8807 63.302Z" fill="#50C589"/>
<path d="M78.7618 80.0156C78.7618 80.4714 78.7618 80.7604 78.7618 81.0495C78.7618 81.763 78.7618 82.4766 78.7618 83.3542C79.8002 83.3542 80.7917 83.3438 81.7832 83.3568C83.0116 83.3724 83.7689 84.0235 83.7532 85.0261C83.7376 86.0261 82.9777 86.6615 81.7468 86.6849C80.8385 86.7031 79.9303 86.7031 79.0221 86.7162C78.9674 86.7162 78.9128 86.7682 78.7618 86.8412C78.7618 87.4375 78.7618 88.0807 78.7618 88.724C78.7618 90.888 78.3169 91.6589 77.0781 91.6406C75.8628 91.625 75.4438 90.8646 75.4438 88.6719C75.4438 88.0573 75.4438 87.4427 75.4438 86.6771C74.2988 86.6771 73.2084 86.7136 72.1232 86.6641C71.306 86.6276 70.7049 86.2084 70.5228 85.3542C70.3536 84.5573 70.6398 83.9271 71.3529 83.5599C71.6522 83.4063 72.0373 83.3698 72.3834 83.362C73.3515 83.336 74.3222 83.3542 75.3658 83.3542V80.0156C74.4628 80.0156 73.5649 80.0209 72.6671 80.0156C71.2618 80.0052 70.4837 79.4193 70.4629 78.3646C70.4421 77.3021 71.2202 76.6927 72.6151 76.6771C73.1538 76.6719 73.6925 76.6771 74.3691 76.6771C74.1505 76.1953 74.0178 75.875 73.8642 75.5677C72.2586 72.3386 70.6399 69.1198 69.0472 65.8828C68.5684 64.9115 68.8625 63.9688 69.703 63.5339C70.5566 63.0912 71.4466 63.4089 71.9879 64.3568C72.1154 64.5834 72.2247 64.8177 72.3418 65.0521C73.7627 67.8985 75.181 70.7474 76.6019 73.5938C76.7451 73.8802 76.9012 74.1615 77.1172 74.5703C77.5934 73.6172 78.0124 72.7813 78.4313 71.9427C79.6623 69.4714 80.8854 66.9974 82.1268 64.5339C82.6811 63.4323 83.5919 63.0599 84.4975 63.5183C85.4135 63.9818 85.6582 64.9245 85.1039 66.0391C83.545 69.1797 81.9732 72.3151 80.4066 75.4505C80.2348 75.7943 80.0682 76.1407 79.8028 76.6823C80.6147 76.6823 81.2783 76.6615 81.9393 76.6875C83.0349 76.7318 83.7402 77.3828 83.7506 78.3229C83.7611 79.2656 83.0636 79.9427 81.9758 80.0104C81.4579 80.0417 80.9375 80.0209 80.4196 80.0209C79.9069 80.0209 79.3916 80.0209 78.7618 80.0209V80.0156Z" fill="#50C589"/>
<path d="M25.637 12.1303C25.6162 12.2527 25.5798 12.3699 25.5798 12.4871C25.5771 15.5756 25.5798 18.6641 25.5798 21.7969C27.5758 22.3178 29.2543 23.2813 30.506 24.9219C33.9854 29.4896 31.9608 36.1068 26.514 37.8933C25.9727 38.0704 25.5771 38.2344 25.4288 38.8985C25.2622 39.6381 24.6221 40.0001 23.8778 39.987C23.1283 39.974 22.5063 39.5626 22.3684 38.8334C22.2513 38.2136 21.9026 38.086 21.4316 37.9323C18.025 36.823 15.6673 33.7136 15.6282 30.3047C15.6152 29.1355 16.2086 28.3881 17.1897 28.336C18.1447 28.2865 18.85 29.0131 18.9437 30.1459C19.1285 32.3751 20.3672 34.0652 22.2044 34.5391V24.9011C21.5252 24.6329 20.8148 24.4089 20.1564 24.0782C17.0804 22.5417 15.3628 19.3568 15.6465 15.7891C15.8963 12.6459 18.1864 9.79174 21.3119 8.7683C21.8479 8.59382 22.2513 8.44539 22.397 7.7683C22.5532 7.03914 23.222 6.55476 23.935 6.70841C24.4867 6.8282 25.2232 7.27872 25.382 7.74747C25.6162 8.44278 26.0247 8.59643 26.5791 8.78393C29.8138 9.87247 32.1221 12.9454 32.2054 16.2475C32.2366 17.4792 31.6485 18.2657 30.6518 18.3256C29.6707 18.3829 28.9837 17.6407 28.8926 16.4219C28.7338 14.3308 27.4222 12.573 25.6422 12.1251L25.637 12.1303ZM22.2331 12.1173C20.1772 12.6355 18.7849 14.81 18.9515 17.1147C19.0894 19.0365 20.669 20.9923 22.2331 21.1693V12.1199V12.1173ZM25.6266 25.4298V34.5417C27.4326 34.0912 28.8405 32.1719 28.89 30.1537C28.9394 27.9975 27.6174 26.0495 25.6266 25.4298Z" fill="#50C589"/>
</svg>
