<svg width="98" height="86" viewBox="0 0 98 86" fill="none" xmlns="http://www.w3.org/2000/svg">
<g clip-path="url(#clip0_2050_28)">
<g clip-path="url(#clip1_2050_28)">
<path d="M37.7715 68.8373C37.2731 68.8373 36.8855 68.8373 36.4978 68.8373C26.8997 68.8373 17.2987 68.8373 7.70063 68.8373C2.82143 68.8344 0 65.9984 0 61.1076C0 43.3279 0 25.5454 0 7.76572C0 2.95355 2.85057 0.0942383 7.65108 0.0942383C35.1396 0.0942383 62.631 0.0942383 90.1195 0.0942383C94.8588 0.0942383 97.7414 2.9623 97.7414 7.68411C97.7414 25.5366 97.7414 43.392 97.7414 61.2446C97.7414 65.9693 94.8704 68.8315 90.1224 68.8315C80.5593 68.8373 70.9962 68.8315 61.433 68.8315H59.9786C60.1302 69.1988 60.2293 69.4902 60.3633 69.7613C62.2725 73.597 64.2049 77.424 66.0878 81.2743C66.4055 81.9272 66.7669 82.1546 67.4927 82.1429C70.4016 82.0963 73.3104 82.1225 76.2193 82.1254C77.7087 82.1254 78.5132 82.7259 78.5336 83.8393C78.554 84.9818 77.7204 85.6143 76.1697 85.6143C57.9879 85.6143 39.8089 85.6143 21.627 85.6143C20.0385 85.6143 19.2253 85.0343 19.2078 83.8976C19.1874 82.7259 20.021 82.1254 21.6795 82.1254C24.5884 82.1254 27.4972 82.1458 30.4061 82.0992C30.7792 82.0934 31.3271 81.8136 31.4845 81.5046C33.5394 77.4998 35.5418 73.4659 37.5529 69.4378C37.6287 69.2862 37.6695 69.1171 37.7686 68.8344L37.7715 68.8373ZM94.2525 54.8293V53.6343C94.2525 38.3263 94.2525 23.0183 94.2525 7.71034C94.2525 4.9064 92.9234 3.58604 90.1078 3.58604C62.6193 3.58604 35.1279 3.58604 7.63942 3.58604C4.8005 3.58604 3.49181 4.88308 3.49181 7.70159C3.49181 23.0096 3.49181 38.3176 3.49181 53.6255C3.49181 54.0132 3.49181 54.4008 3.49181 54.8293H94.2525ZM3.50055 58.4086C3.50055 59.7231 3.40728 60.9327 3.53553 62.1131C3.61131 62.7952 3.94067 63.5122 4.34581 64.0776C5.10946 65.1386 6.27534 65.3572 7.54323 65.3572C35.0988 65.3426 62.6543 65.3455 90.2098 65.3455C90.4284 65.3455 90.647 65.3455 90.8627 65.3368C92.5095 65.2552 93.9552 64.1418 94.1505 62.5329C94.3137 61.1892 94.1855 59.8076 94.1855 58.4086H3.50055ZM35.2095 82.0613H62.4969C62.4532 81.8864 62.4474 81.7786 62.4036 81.6882C60.3663 77.5989 58.3435 73.5038 56.2565 69.4407C56.0933 69.1201 55.4754 68.8694 55.0644 68.8636C50.9605 68.8228 46.8566 68.8636 42.7557 68.8169C41.9658 68.8082 41.616 69.1084 41.2954 69.7613C39.4358 73.5358 37.5413 77.29 35.6613 81.0557C35.5039 81.3676 35.3786 81.697 35.2154 82.0642L35.2095 82.0613Z" fill="#50C589"/>
<rect x="14.523" y="10.0924" width="19.4427" height="15.06" rx="3.00752" stroke="#50C589" stroke-width="3.00752"/>
<circle cx="24.2444" cy="40.934" r="7.80056" stroke="#50C589" stroke-width="3.00752"/>
<rect x="43.8667" y="11.5962" width="38.9376" height="4.10248" rx="2.05124" fill="#50C589"/>
<rect x="43.8667" y="19.5459" width="38.9376" height="4.10248" rx="2.05124" fill="#50C589"/>
<rect x="43.8667" y="34.4331" width="38.9376" height="4.10248" rx="2.05124" fill="#50C589"/>
<rect x="43.8667" y="42.3828" width="38.9376" height="4.10248" rx="2.05124" fill="#50C589"/>
</g>
</g>
<defs>
<clipPath id="clip0_2050_28">
<rect width="97.7443" height="85.7142" fill="white"/>
</clipPath>
<clipPath id="clip1_2050_28">
<rect width="97.7443" height="85.5259" fill="white" transform="translate(0 0.0942383)"/>
</clipPath>
</defs>
</svg>
