<svg width="88" height="100" viewBox="0 0 88 100" fill="none" xmlns="http://www.w3.org/2000/svg">
<g clip-path="url(#clip0_2050_19)">
<path fill-rule="evenodd" clip-rule="evenodd" d="M43.4681 4.25061C34.2454 4.25061 25.4004 7.91433 18.8789 14.4358C12.3574 20.9573 8.69372 29.8023 8.69372 39.025V46.1679C8.69372 47.206 7.85215 48.0476 6.81402 48.0476C5.7759 48.0476 4.93433 47.206 4.93433 46.1679V39.025C4.93433 28.8052 8.99413 19.004 16.2206 11.7775C23.4471 4.55101 33.2483 0.491211 43.4681 0.491211C53.6879 0.491211 63.4892 4.55101 70.7157 11.7775C77.9422 19.004 82.002 28.8052 82.002 39.025V46.9198C82.002 47.9579 81.1604 48.7995 80.1223 48.7995C79.0841 48.7995 78.2426 47.9579 78.2426 46.9198V39.025C78.2426 29.8023 74.5788 20.9573 68.0574 14.4358C61.5359 7.91433 52.6909 4.25061 43.4681 4.25061Z" fill="#50C589"/>
<path fill-rule="evenodd" clip-rule="evenodd" d="M72.4154 49.0499C70.7537 49.0499 69.16 49.7101 67.9849 50.8851C66.8099 52.0601 66.1498 53.6538 66.1498 55.3156V67.5336C66.1498 69.1954 66.8099 70.7891 67.9849 71.9641C69.16 73.1392 70.7537 73.7993 72.4154 73.7993H76.4881C78.1499 73.7993 79.7436 73.1392 80.9186 71.9641C82.0937 70.7891 82.7538 69.1954 82.7538 67.5336V49.0499H72.4154ZM65.3267 48.2268C67.2067 46.3467 69.7566 45.2905 72.4154 45.2905H84.6335C85.6716 45.2905 86.5132 46.1321 86.5132 47.1702V67.5336C86.5132 70.1924 85.457 72.7424 83.5769 74.6224C81.6968 76.5025 79.1469 77.5587 76.4881 77.5587H72.4154C69.7566 77.5587 67.2067 76.5025 65.3267 74.6224C63.4466 72.7424 62.3904 70.1924 62.3904 67.5336V55.3156C62.3904 52.6568 63.4466 50.1069 65.3267 48.2268Z" fill="#50C589"/>
<path fill-rule="evenodd" clip-rule="evenodd" d="M67.4683 80.8811C69.0748 79.2589 70.4372 77.2889 71.1862 75.988L73.7926 77.4887C72.9446 78.9616 71.4324 81.1523 69.6053 82.9973C67.8526 84.7672 65.4754 86.5635 62.9073 86.5635L62.9074 83.5559C64.1721 83.5559 65.7874 82.5785 67.4683 80.8811Z" fill="#50C589"/>
<path fill-rule="evenodd" clip-rule="evenodd" d="M51.6863 96.8771C56.6403 96.8771 60.6564 92.861 60.6564 87.907C60.6564 82.953 56.6403 78.937 51.6863 78.937C46.7323 78.937 42.7163 82.953 42.7163 87.907C42.7163 92.861 46.7323 96.8771 51.6863 96.8771ZM51.6863 99.8846C58.3013 99.8846 63.6639 94.522 63.6639 87.907C63.6639 81.292 58.3013 75.9294 51.6863 75.9294C45.0713 75.9294 39.7087 81.292 39.7087 87.907C39.7087 94.522 45.0713 99.8846 51.6863 99.8846Z" fill="#50C589"/>
<path fill-rule="evenodd" clip-rule="evenodd" d="M0.704956 46.7737C0.704956 45.7356 1.54653 44.894 2.58465 44.894H14.8027C17.4615 44.894 20.0114 45.9503 21.8915 47.8303C23.7715 49.7104 24.8278 52.2603 24.8278 54.9191V67.1371C24.8278 69.796 23.7715 72.3459 21.8915 74.2259C20.0114 76.106 17.4615 77.1622 14.8027 77.1622H10.73C8.0712 77.1622 5.52129 76.106 3.64123 74.2259C1.76116 72.3459 0.704956 69.796 0.704956 67.1371V46.7737ZM4.46435 48.6534V67.1371C4.46435 68.7989 5.12448 70.3926 6.29952 71.5676C7.47456 72.7427 9.06826 73.4028 10.73 73.4028H14.8027C16.4644 73.4028 18.0581 72.7427 19.2332 71.5676C20.4082 70.3926 21.0684 68.7989 21.0684 67.1371V54.9191C21.0684 53.2573 20.4082 51.6637 19.2332 50.4886C18.0581 49.3136 16.4644 48.6534 14.8027 48.6534H4.46435Z" fill="#50C589"/>
</g>
<defs>
<clipPath id="clip0_2050_19">
<rect width="87.218" height="100" fill="white"/>
</clipPath>
</defs>
</svg>
