<svg width="97" height="98" viewBox="0 0 97 98" fill="none" xmlns="http://www.w3.org/2000/svg">
<g clip-path="url(#clip0_2050_22)">
<path d="M86.0441 0C86.4257 0.140777 86.8136 0.272169 87.189 0.422331C89.9952 1.55167 91.4781 4.64877 90.6084 7.5519C89.7449 10.43 86.7824 12.2007 83.8041 11.575C83.3224 11.4749 83.0064 11.4154 82.6842 11.9035C78.7768 17.8161 74.8476 23.7162 70.9246 29.6226C70.8902 29.6726 70.8777 29.7383 70.8558 29.7978C72.7359 32.8167 72.7547 35.2505 70.9215 37.5186C69.4324 39.3612 66.8327 40.0839 64.5302 39.2924C61.8555 38.3758 60.6573 36.2954 60.6322 32.4569C58.02 31.143 55.3891 29.8072 52.7362 28.512C52.5391 28.415 52.1231 28.5151 51.9416 28.6747C49.9707 30.389 47.8059 30.7644 45.3814 29.7759C45.1343 29.6758 44.6713 29.7164 44.4992 29.8854C41.0893 33.2202 37.7075 36.5832 34.3508 39.9087C35.7492 42.7148 35.4113 45.912 32.5613 47.9017C30.2244 49.5347 27.412 49.1718 24.8217 46.91C23.5954 47.5232 22.3253 48.1582 21.0583 48.7933C19.807 49.419 18.5712 50.0728 17.3011 50.6547C16.6973 50.93 16.5096 51.2584 16.5472 51.9498C16.7349 55.4473 14.1102 58.2253 10.7065 58.2128C8.11934 58.2034 5.82311 56.4609 5.11296 53.9676C4.39657 51.4555 5.36325 48.8558 7.53121 47.47C9.75862 46.0434 12.5741 46.2218 14.5388 47.9079C14.7546 48.0925 14.958 48.2896 15.2082 48.5149C17.8517 47.1915 20.4952 45.8776 23.1199 44.5324C23.3045 44.4386 23.4828 44.1101 23.4797 43.8942C23.3827 38.5823 27.2462 35.9669 32.3361 37.966C34.9108 35.3976 37.4979 32.8135 40.0851 30.2326C40.8046 29.5131 41.5054 28.7717 42.2499 28.0803C42.6785 27.6861 42.7755 27.3639 42.5284 26.7789C41.5179 24.3982 41.9496 22.1958 43.7265 20.3595C45.4315 18.5951 47.5807 18.1446 49.8706 18.9767C52.2513 19.8402 53.4996 21.6671 53.7185 24.1761C53.7592 24.6453 53.6747 25.124 53.6403 25.7215C54.5914 26.2064 55.5987 26.7288 56.6092 27.2356C58.1984 28.0334 59.7845 28.8405 61.3925 29.6007C61.6427 29.7196 62.1182 29.7509 62.2872 29.6007C64.0672 27.9896 66.0913 27.5172 68.4125 28.2179C72.5044 22.0707 76.5713 15.961 80.6601 9.81997C79.6841 8.57488 79.1053 7.20465 79.171 5.59666C79.2617 3.28792 80.7728 1.19191 82.9939 0.369148C83.3161 0.25027 83.6352 0.122007 83.9543 0C84.6551 0 85.3527 0 86.0534 0L86.0441 0ZM50.8717 24.4764C50.8874 22.8747 49.5296 21.4951 47.9091 21.47C46.3043 21.445 44.909 22.7871 44.8652 24.3982C44.8214 26.0218 46.2417 27.4671 47.8747 27.4609C49.4765 27.4578 50.8561 26.0813 50.8686 24.4764H50.8717ZM32.2735 43.0965C32.2892 41.4447 30.994 40.1026 29.361 40.0776C27.6905 40.0526 26.3046 41.4134 26.3108 43.0683C26.3171 44.692 27.6561 46.0247 29.2891 46.0309C30.944 46.0372 32.261 44.7452 32.2767 43.0934L32.2735 43.0965ZM7.75645 52.3721C7.75957 54.0114 9.08601 55.3472 10.7159 55.3535C12.3771 55.3597 13.7348 53.9801 13.7129 52.3096C13.6878 50.6734 12.352 49.3814 10.7002 49.3939C9.04533 49.4064 7.75645 50.7141 7.75958 52.3721H7.75645ZM87.9837 5.86883C87.9868 4.22956 86.6697 2.88436 85.0461 2.86872C83.3849 2.84995 82.0147 4.22331 82.0303 5.89386C82.046 7.53 83.3756 8.84079 85.0211 8.83453C86.676 8.82828 87.9774 7.52374 87.9837 5.87196V5.86883ZM63.4666 33.7739C63.4728 35.4132 64.8055 36.7459 66.4323 36.749C68.0528 36.749 69.4167 35.407 69.4324 33.7896C69.448 32.1409 68.0434 30.7332 66.401 30.7582C64.7836 30.7832 63.4603 32.1409 63.4666 33.7739Z" fill="#50C589"/>
<path d="M89.5542 23.5849H80.5476V94.8024H89.5542V93.5573C89.5542 83.8249 89.5542 74.0894 89.5542 64.357C89.5542 63.9754 89.5385 63.5875 89.6042 63.2152C89.7418 62.4112 90.2393 61.9795 91.062 62.0139C91.8379 62.0452 92.2883 62.4894 92.3822 63.259C92.426 63.6031 92.4135 63.9566 92.4135 64.307C92.4135 74.0738 92.4135 83.8374 92.4135 93.6042C92.4135 93.9796 92.4135 94.3582 92.4135 94.8712C93.0454 94.8712 93.6054 94.8462 94.1623 94.8775C95.0507 94.9244 95.6169 95.5157 95.6013 96.329C95.5857 97.1018 95.0382 97.6555 94.1998 97.7243C93.9151 97.7462 93.6273 97.7337 93.3426 97.7337C63.0287 97.7337 32.7147 97.7337 2.40073 97.7337C2.05035 97.7337 1.69059 97.7712 1.35273 97.7055C0.570635 97.5522 0.110762 97.0705 0.138918 96.2415C0.167073 95.4625 0.626929 94.9932 1.37461 94.8994C1.969 94.8243 2.57592 94.8837 3.32047 94.8837C3.32047 94.4458 3.32047 94.0766 3.32047 93.7075C3.32047 86.0429 3.32047 78.3753 3.32047 70.7108C3.32047 68.2018 4.19015 67.3384 6.69911 67.3353C9.49901 67.3353 12.2989 67.3259 15.0957 67.3353C17.1604 67.3446 18.1208 68.3082 18.1239 70.3792C18.1302 78.1094 18.1239 85.8396 18.1239 93.5667C18.1239 93.9452 18.1239 94.3238 18.1239 94.7836H21.8874C21.8874 94.4551 21.8874 94.0891 21.8874 93.7231C21.8874 82.9396 21.8874 72.1561 21.8874 61.3726C21.8874 58.9293 22.7852 58.0221 25.1972 58.019C27.8376 58.019 30.481 58.1066 33.1183 57.9939C35.8775 57.8782 36.7534 59.3047 36.744 61.579C36.6908 72.2343 36.7221 82.8927 36.7221 93.5479C36.7221 93.9546 36.7221 94.3582 36.7221 94.8149H40.4387V93.6042C40.4387 76.6828 40.4387 59.7583 40.4387 42.8369C40.4387 40.2185 41.3177 39.33 43.908 39.33C46.6109 39.33 49.317 39.33 52.0199 39.33C54.3443 39.33 55.2953 40.2936 55.2953 42.6492C55.2953 59.605 55.2953 76.5577 55.2953 93.5135V94.8055H59.0118V93.551C59.0118 79.7455 59.0055 65.94 59.0274 52.1345C59.0274 51.4525 59.1025 50.7079 59.3841 50.101C59.9972 48.7777 63.2977 48.4837 63.8358 48.9842C64.1768 49.3002 64.5053 49.9947 64.4114 50.4295C64.3207 50.8581 63.889 51.074 63.4291 51.2992C63.0756 51.4713 62.4311 51.5432 61.9337 51.5432V94.8055H70.9215V51.6058C70.4804 51.587 62.5375 51.5901 62.1058 51.5432C61.3738 51.4619 60.8419 50.9895 60.8951 50.3106C60.9327 49.807 61.2111 49.0217 61.6146 48.8841C62.7971 48.4868 71.6818 48.4774 72.7861 49.2595C73.6432 49.8664 73.8497 50.7674 73.8466 51.781C73.8309 59.6363 73.8372 67.4948 73.8372 75.3502C73.8372 81.4567 73.8372 87.5665 73.8372 93.673V94.7867H77.6006V93.6105C77.6006 70.5794 77.6006 47.5514 77.6006 24.5203C77.6006 24.2012 77.5975 23.8852 77.6006 23.5662C77.6319 21.7454 78.6048 20.6943 80.4193 20.6724C83.4726 20.6349 86.5259 20.6317 89.5792 20.6724C91.475 20.6974 92.401 21.7799 92.401 23.8571C92.4072 33.3674 92.401 42.8776 92.401 52.391C92.401 53.6643 92.4072 64.3195 92.401 65.5928C92.3947 66.8754 91.8817 67.5542 90.9557 67.5355C90.0391 67.5167 89.5416 66.8316 89.5416 65.5427C89.5385 58.2598 89.5416 41.5887 89.5416 34.3059C89.5416 31.093 89.5416 27.8802 89.5416 24.6673C89.5416 24.3263 89.5416 23.9822 89.5416 23.5818L89.5542 23.5849ZM43.3731 42.2238V94.8055H52.3703V42.2238H43.3731ZM33.7783 94.8274V60.9315H24.8187V94.8274H33.7783ZM6.2674 70.2415V94.8118H15.2083V70.2415H6.2674Z" fill="#50C589"/>
</g>
<defs>
<clipPath id="clip0_2050_22">
<rect width="96.2406" height="97.7444" fill="white"/>
</clipPath>
</defs>
</svg>
