<?xml version="1.0" encoding="utf-8"?>
<!-- Generator: Adobe Illustrator 27.8.1, SVG Export Plug-In . SVG Version: 6.00 Build 0)  -->
<svg version="1.1" id="Layer_1" xmlns="http://www.w3.org/2000/svg" xmlns:xlink="http://www.w3.org/1999/xlink" x="0px" y="0px"
	 viewBox="0 0 100 100" style="enable-background:new 0 0 100 100;" xml:space="preserve">
<style type="text/css">
	.st0{fill:#50C589;}
</style>
<g>
	<path class="st0" d="M91,52.5c-0.2,1.5-0.3,3-0.6,4.5c-3.2,15.7-12.2,26.5-27.3,31.7c-22.2,7.7-46-5-52.5-27.6
		C4,38.2,18.7,14.2,42.1,9.7c1.8-0.3,3.6-0.5,5.4-0.8c1.7,0,3.4,0,5.1,0c1.5,0.2,3,0.4,4.5,0.6c1.5,0.2,2.9,0.6,4.4,1
		c1.6,0.4,2.4,1.8,1.9,3.2c-0.4,1.4-1.8,2.1-3.3,1.7c-4.5-1.3-9-1.7-13.7-1.2c-6.1,0.6-11.6,2.6-16.6,6.1
		c-7.9,5.5-13,12.9-14.8,22.3c-2.6,13.4,1.3,24.8,11.3,34c5.2,4.8,11.5,7.7,18.5,8.7c9.9,1.4,18.9-0.9,26.8-6.9
		c7.8-5.9,12.4-13.8,13.8-23.4c0.8-5.1,0.4-10.1-1-15c-0.6-2,0.6-3.6,2.5-3.6c1.1,0.1,2,0.8,2.3,1.9c0.8,2.6,1.3,5.3,1.5,8
		c0,0.3,0,0.7,0.2,1C91,49.1,91,50.8,91,52.5z"/>
	<path class="st0" d="M91,24.5c-0.3,0.7-0.9,1.3-1.4,1.9c-2.7,2.7-5.4,5.3-8,8c-0.8,0.8-1.7,1.2-2.7,1.3c-3.9,0.4-7.7,0.8-11.6,1.1
		c-0.5,0-0.7,0.3-1,0.6c-4.7,4.7-9.4,9.4-14.1,14.1c-0.7,0.7-1.5,1.1-2.5,0.9c-1-0.2-1.6-0.8-1.9-1.7c-0.3-0.9-0.1-1.8,0.6-2.5
		c0.6-0.7,1.3-1.3,2-2c4.1-4.1,8.3-8.3,12.4-12.4c0.4-0.4,0.6-0.8,0.7-1.4c0.3-3.8,0.8-7.6,1.1-11.5c0.1-1,0.5-1.8,1.2-2.5
		c2.7-2.7,5.4-5.4,8.1-8.1c0.5-0.6,1.1-1.1,1.8-1.4c0.4,0,0.9,0,1.3,0c1.4,0.6,1.9,1.7,2,3.1c0.1,2.6,0.4,5.2,0.6,7.9
		c0,0.5,0.2,0.6,0.7,0.7c2.6,0.2,5.2,0.5,7.9,0.6c1.5,0.1,2.5,0.6,3.1,2C91,23.6,91,24.1,91,24.5z M74,17.3c-1.6,1.6-3,3-4.5,4.4
		c-0.2,0.2-0.2,0.4-0.2,0.7c-0.3,2.9-0.6,5.7-0.9,8.6c-0.1,0.5,0.1,0.6,0.6,0.5c2.7-0.3,5.5-0.6,8.2-0.8c0.6-0.1,1.1-0.3,1.6-0.8
		c0.9-1,1.9-1.9,2.9-2.9c0.3-0.3,0.7-0.6,0.9-1c-1.7-0.1-3.3-0.3-4.9-0.4c-2.3-0.2-3.1-0.9-3.3-3.2C74.2,20.7,74.1,19.1,74,17.3z"/>
	<path class="st0" d="M49.7,78.2C36,78.2,24,67.8,22.1,53.9C20,39.2,29.6,25.5,44.1,22.3c4.4-1,8.9-0.8,13.3,0.4
		c1.2,0.3,1.9,1.3,1.9,2.4c0,1.1-0.7,2.1-1.8,2.5c-0.6,0.2-1.2,0.1-1.8-0.1c-9.3-2.1-17.3,0.4-23.5,7.6c-9.5,11-6,28.3,6.8,35.1
		c13.7,7.3,30.4-0.6,33.6-15.8c0.7-3.4,0.6-6.7-0.2-10.1c-0.2-0.7-0.4-1.3-0.1-2c0.4-1.1,1.3-1.8,2.5-1.8c1.1,0,2.1,0.7,2.4,1.8
		c0.7,2.6,1,5.2,1,7.9C78.1,63.4,68.7,74.8,56,77.5c-0.7,0.2-1.4,0.3-2.1,0.4C52.6,78.1,51.3,78.1,49.7,78.2z"/>
	<path class="st0" d="M50.4,39.7c-5.4-0.2-9.8,3.6-10.5,9.1c-0.7,5,2.9,9.9,8,11.1c6.1,1.4,12.2-3.3,12.4-9.5c0-0.3,0-0.7,0.1-1
		c0.3-1.3,1.5-2.1,2.8-2c1.3,0.2,2.3,1.2,2.2,2.6c-0.1,4.8-1.9,8.8-5.6,11.8c-5.1,4.1-10.8,4.8-16.7,1.8c-5.8-3-8.6-8-8.4-14.6
		c0.4-8.4,7.9-15,16.4-14.4c0.8,0.1,1.6,0.2,2.2,0.9c0.7,0.8,0.9,1.7,0.5,2.7c-0.4,1-1.2,1.5-2.2,1.6C51.2,39.8,50.8,39.7,50.4,39.7
		z"/>
</g>
</svg>
