<?xml version="1.0" standalone="no"?>
<!DOCTYPE svg PUBLIC "-//W3C//DTD SVG 1.1//EN" "http://www.w3.org/Graphics/SVG/1.1/DTD/svg11.dtd">
<svg xmlns="http://www.w3.org/2000/svg" width="300" height="150" viewBox="0 0 300 150" fill="none">
<g clip-path="url(#clip0_545_2)">
<path d="M98.3185 57.74V103.6H84.9333V98.0298C81.9866 101.411 77.6159 103.457 71.6315 103.457C59.9357 103.457 50.3003 93.2294 50.3003 79.9755C50.3003 66.7218 59.9357 56.4946 71.6315 56.4946C77.6084 56.4946 81.9866 58.5401 84.9333 61.9215V57.74H98.3185ZM74.3055 90.5575C81.0018 90.5575 85.1984 86.1119 85.1984 79.9755C85.1984 73.8394 81.0018 69.3937 74.3055 69.3937C67.6092 69.3937 63.4202 73.8394 63.4202 79.9755C63.4202 86.1119 67.6168 90.5575 74.3055 90.5575Z" fill="white"/>
<path d="M146.625 57.6804L146.602 82.2408C146.602 94.0229 137.019 103.586 125.18 103.586C113.355 103.586 103.758 94.0229 103.758 82.2408V57.6804H117.143V82.2408C117.143 86.6638 120.741 90.2414 125.172 90.2414C129.611 90.2414 133.202 86.6562 133.202 82.2408L133.217 57.688L146.625 57.6804Z" fill="white"/>
<path d="M178.879 57.5604V72.6785C173.342 71.7878 165.494 74.0144 165.494 82.8151V103.451H152.101V57.5604H165.494V66.361C167.274 60.4059 173.251 57.5604 178.879 57.5604Z" fill="white"/>
<path d="M206.93 91.7899C210.513 91.7899 213.573 90.3936 215.315 88.484L225.799 94.492C221.519 100.409 215.05 103.459 206.748 103.459C191.81 103.459 182.546 93.4504 182.546 80.4758C182.546 67.5013 191.984 57.493 205.786 57.493C218.542 57.493 227.981 67.3277 227.981 80.4758C227.981 82.3024 227.806 84.0459 227.458 85.6988H196.446C198.105 90.22 202.127 91.7899 206.93 91.7899ZM214.967 75.9471C213.573 70.8977 209.641 69.0712 205.71 69.0712C200.733 69.0712 197.408 71.509 196.188 75.9471H214.967Z" fill="white"/>
<path d="M257.432 103.608L248.857 91.4793L240.282 103.608H224.428L240.926 80.2784L224.973 57.6804H240.835L248.857 69.0699L256.879 57.6804H272.734L256.781 80.2784L273.279 103.608H257.432Z" fill="white"/>
<path d="M35.1884 69.8093C32.4387 69.1979 31.3782 68.3525 31.3782 68.3525C31.3782 68.3525 32.5674 74.3152 38.9532 75.9002V86.4595C38.9532 88.2408 40.4 89.6824 42.1877 89.6824H47.2782V103.593H37.0216C30.3859 103.593 25 98.2265 25 91.6147V47H38.9532V57.7404H47.2782V70.3376H39.2486C39.0441 70.3376 38.8471 70.3301 38.6426 70.3074C37.976 70.2319 36.3625 70.0659 35.1884 69.8093Z" fill="white"/>
</g>
<defs>
<clipPath id="clip0_545_2">
<rect width="250.02" height="56.6083" fill="white" transform="translate(25 47)"/>
</clipPath>
</defs>
</svg>