<?xml version="1.0" standalone="no"?>
<!DOCTYPE svg PUBLIC "-//W3C//DTD SVG 1.1//EN" "http://www.w3.org/Graphics/SVG/1.1/DTD/svg11.dtd">
<svg xmlns="http://www.w3.org/2000/svg" width="240" height="60" viewBox="0 0 240 60" fill="none">
<g clip-path="url(#clip0_1155_4)">
<mask id="mask0_1155_4" style="mask-type:luminance" maskUnits="userSpaceOnUse" x="0" y="0" width="240" height="60">
<path d="M239.567 0.339844H0.433105V59.6598H239.567V0.339844Z" fill="white"/>
</mask>
<g mask="url(#mask0_1155_4)">
<path d="M39.4716 59.1216C39.4083 58.8676 39.5761 58.8276 39.691 58.6796C41.0029 56.9876 42.6313 55.4886 43.6193 53.4883C50.8162 37.0042 57.4581 20.2481 64.3282 3.61412C64.9701 2.33252 66.6074 0.852525 68.0341 0.552725C69.3666 0.272025 77.403 0.277924 78.824 0.517424C80.271 0.759924 80.593 2.01513 80.37 3.31283L58.6875 56.0366C58.1486 57.3006 55.8974 59.1236 54.5649 59.1236H39.4731L39.4716 59.1216Z" fill="white"/>
<path d="M41.533 0.480957C39.5291 2.68256 37.7107 5.07676 36.3974 7.77366L16.1832 56.6739C15.3145 57.7099 13.9525 58.8839 12.5612 59.0839C10.3644 59.4009 5.04622 59.2999 2.72872 59.1279C1.12522 59.0099 0.246223 58.2649 0.465623 56.5619L22.2626 3.51296C22.6646 2.37106 25.0218 0.48246 26.1467 0.48246H41.533V0.480957Z" fill="white"/>
<path d="M51.4994 18.6037C52.48 19.4869 52.0117 20.7965 51.6569 21.8311C49.7811 27.2955 46.857 32.7142 44.9444 38.205C42.4796 43.5356 35.3798 40.8343 30.7109 41.4869C29.1002 41.2532 28.6084 40.0613 28.9426 38.546C31.6223 33.0523 33.3436 26.4048 36.1528 21.0522C38.7103 16.1787 45.8145 18.7639 50.2979 18.1157C50.5894 18.1525 51.3006 18.4244 51.5008 18.6051L51.4994 18.6037Z" fill="white"/>
<path d="M147.028 0.921672C147.053 0.923172 147.127 0.805571 147.249 0.848171L164.181 20.1748V0.921672H167.568V25.9066H164.55C158.918 19.7603 153.725 13.2025 148.106 7.04737C147.975 6.90337 147.977 6.73287 147.691 6.80047V25.9066H144.304V0.921672C145.206 0.961372 146.127 0.867372 147.028 0.921672Z" fill="white"/>
<path d="M93.287 35.0186L101.239 44.8671C101.508 44.8671 102.251 43.8897 102.485 43.612C104.724 40.9724 106.785 37.9022 109.118 35.3817C109.209 35.2817 109.253 35.1509 109.262 35.0186H112.796V59.4156H109.262V40.605L101.532 49.8802L100.931 49.7259C98.737 47.1099 96.731 44.3204 94.534 41.7102C94.225 41.3428 93.798 40.6946 93.36 40.6035V59.4156H89.974V35.0186H93.287Z" fill="white"/>
<path d="M93.655 0.921875V11.6507H107.642V0.921875H111.323V25.9067H107.642V15.031H93.655V25.9067H89.974V0.921875H93.655Z" fill="white"/>
<path d="M150.12 35.019C156.939 35.7832 158.687 44.935 152.347 47.6481L152.257 47.9494C153.697 48.6578 154.567 50.1289 155.552 51.3488L160.795 59.4159H156.746C155.945 58.1679 155.06 56.9749 154.255 55.7299C152.862 53.5798 150.857 49.5014 148.142 48.8988C147.448 48.7445 146.026 48.5108 145.482 48.9076V59.4159H142.096V35.019C144.643 35.2277 147.626 34.7397 150.12 35.019ZM145.482 45.6008H148.795C149.063 45.6008 150.029 45.3465 150.338 45.2304C153.277 44.1384 153.354 39.5015 150.443 38.3699C150.17 38.2641 149.015 37.9584 148.794 37.9584H145.481L145.482 45.6008Z" fill="white"/>
<path d="M140.035 25.9067H136.427L132.9 18.5479L122.235 18.5759L119.274 25.9067H115.593L126.409 0.764648L128.92 0.921848L140.035 25.9082V25.9067ZM123.839 15.3249H131.495L127.592 6.50525L123.839 15.3249Z" fill="white"/>
<path d="M167.126 35.0186V46.0414L177.359 35.0186H181.703L171.259 46.5367L184.353 59.4156H179.715L167.126 47.3641V59.4156H163.593V35.0186H167.126Z" fill="white"/>
<path d="M115.52 59.4155L125.679 35.0186L128.191 34.8613L139.151 59.4155H135.617L132.384 52.1347L122.069 52.1391L118.759 59.4175H115.52V59.4155ZM130.906 48.9807L126.932 40.3095L123.397 48.9807H130.906Z" fill="white"/>
<path d="M239.272 2.53846V6.35966C235.328 4.32856 230.498 2.98526 226.217 4.86496C219.015 8.02636 218.818 18.7258 226.068 21.965C229.164 23.3494 233.047 23.032 236.177 21.8636L239.567 20.1764V24.1446C235.974 25.9023 231.713 26.6269 227.735 26.0346C216.695 24.3929 213.166 10.1692 221.912 3.36006C227.019 -0.615541 233.642 0.16196 239.274 2.53996L239.272 2.53846Z" fill="white"/>
<path d="M212.328 0.921875V4.00817H201.727V11.6507H211.813L212.033 11.8711V14.884H201.727V22.6734H212.622V25.9067H198.193V0.921875H212.328Z" fill="white"/>
<path d="M200.991 35.0186V38.105H190.537V45.4535H200.549V48.6868H190.537V56.1826H201.285V59.2686H187.003C186.963 59.1616 187.15 59.0926 187.15 59.0486V35.2391C187.15 35.195 186.963 35.1259 187.003 35.0186H200.991Z" fill="white"/>
<path d="M225.579 53.0961C227.055 54.6495 228.626 56.0577 230.824 56.4587C233.425 56.9337 236.718 55.6017 235.842 52.4773C234.564 47.9212 224.756 47.5113 225.45 40.4024C226.049 34.262 233.88 33.2846 238.217 36.2196L238.32 40.0187L237.952 40.1599C237.34 39.3118 235.926 38.4814 234.889 38.1463C232.351 37.3247 227.614 38.0522 228.895 41.6309C230.247 45.4067 238.557 45.9342 239.256 52.1584C240.138 60.0067 230.529 61.5777 225.579 57.4327V53.0975V53.0961Z" fill="white"/>
<path d="M193.187 0.774902V4.0082H184.5V25.9067H180.967V4.2287L180.746 4.0082H172.28V0.774902H193.187Z" fill="white"/>
<path d="M223.371 34.8716V37.9579H215.052L214.831 38.1784V59.4155H211.518L211.297 59.1955V37.9579H202.905V35.092L203.126 34.8716H223.371Z" fill="white"/>
</g>
</g>
<defs>
<clipPath id="clip0_1155_4">
<rect width="240" height="60" fill="white"/>
</clipPath>
</defs>
</svg>