<?xml version="1.0" standalone="no"?>
<!DOCTYPE svg PUBLIC "-//W3C//DTD SVG 1.1//EN" "http://www.w3.org/Graphics/SVG/1.1/DTD/svg11.dtd">
<svg xmlns="http://www.w3.org/2000/svg" width="411" height="82" viewBox="0 0 411 82" fill="none">
<g clip-path="url(#clip0_74_28)">
<path d="M0 21.3749C3.08127 23.1101 6.14094 24.884 9.25481 26.5587C10.3602 27.1534 10.8378 27.8572 10.8056 29.1497C10.7175 32.6736 10.8255 36.2026 10.751 39.7269C10.7226 41.0533 11.1189 41.8796 12.3255 42.5495C20.1451 46.8939 27.9084 51.3383 35.75 55.6429C36.4723 56.0394 37.7766 56.0077 38.5277 55.6247C41.8427 53.934 45.0535 52.0421 48.6792 50.012C48.6792 53.967 48.7186 57.5268 48.6309 61.0832C48.6195 61.544 48.0425 62.1421 47.5738 62.4164C44.5217 64.2013 41.4714 66.0011 38.3135 67.5858C37.5904 67.9484 36.2889 67.7798 35.5273 67.3622C28.1099 63.2939 20.7522 59.1182 13.3733 54.9802C12.6748 54.5888 11.9487 54.2464 10.8839 53.7011V67.7498C8.53001 66.4411 6.58633 65.3181 4.602 64.2711C3.09397 63.4756 1.53555 62.7765 0 62.0347C0 48.4814 0 34.9282 0 21.3749Z" fill="white"/>
<path d="M61.3464 28.6814V57.0006C65.8032 54.5444 69.7604 52.3633 74.0758 49.9849C74.0758 53.9137 74.1257 57.4765 74.0186 61.0346C74.0038 61.5317 73.3065 62.1644 72.7722 62.4662C61.3722 68.913 49.9607 75.3398 38.5061 81.6902C37.8156 82.0731 36.584 82.1078 35.8863 81.754C32.7983 80.188 29.7843 78.4685 26.8157 76.6861C26.2297 76.3344 25.6247 75.4725 25.6015 74.8258C25.4808 71.449 25.5451 68.0655 25.5451 64.4224C26.2005 64.6786 26.7035 64.813 27.145 65.0577C29.5688 66.4022 32.0553 67.6568 34.3668 69.1733C36.2707 70.4224 37.8325 70.5293 39.816 69.2321C42.7085 67.3406 45.7855 65.7133 48.863 64.1253C50.3545 63.3556 50.9154 62.3982 50.8989 60.7202C50.8206 52.7061 50.9099 44.6904 50.8261 36.6764C50.8092 35.0732 51.3075 34.1792 52.7406 33.4543C55.4988 32.0595 58.1559 30.4672 61.3464 28.6814Z" fill="white"/>
<path d="M353.02 62.7714C350.359 62.7714 348.007 62.8458 345.667 62.7067C345.214 62.6797 344.449 61.8132 344.456 61.3423C344.473 60.0633 344.827 58.7889 345.047 57.5129L344.516 57.0183C344.44 57.3277 344.391 57.6468 344.285 57.9457C341.776 65.0476 330.925 65.4275 326.231 60.2011C323.925 57.6333 322.657 54.6517 322.266 51.2707C321.763 46.9146 321.751 42.5724 323.289 38.3954C325.904 31.2965 333.751 28.0305 340.013 31.4622C341.43 32.2387 342.599 33.4645 344.139 34.6877C344.211 33.8529 344.331 33.0933 344.334 32.3329C344.354 28.2575 344.383 24.1811 344.326 20.1061C344.307 18.6926 344.78 18.1 346.255 18.1896C347.915 18.2906 349.59 18.2822 351.251 18.1909C352.622 18.1157 353.068 18.6229 353.045 19.9771C352.975 23.9825 353.02 27.9899 353.02 31.9969C353.02 41.3918 353.02 50.7867 353.02 60.1817V62.7714ZM344.298 47.1014L344.085 47.0819C344.085 45.9073 344.18 44.7234 344.067 43.5593C343.691 39.6525 341.235 36.8155 338.123 36.5843C334.693 36.3294 331.846 38.3756 331.262 42.3978C330.795 45.6123 330.887 49.0237 331.42 52.2344C332.004 55.7507 334.502 57.5906 337.373 57.5843C340.317 57.5775 342.814 55.5571 343.661 52.2095C344.079 50.5581 344.099 48.8073 344.298 47.1014Z" fill="white"/>
<path d="M153.743 62.8078C151.383 62.8078 148.892 62.9016 146.422 62.7165C146.005 62.6852 145.371 61.4573 145.36 60.7734C145.27 55.5212 145.316 50.2673 145.306 45.0138C145.303 43.9085 145.337 42.7913 145.193 41.7008C144.913 39.5739 144.266 37.4977 141.99 36.7719C139.574 36.0018 137.314 36.5792 135.507 38.461C133.936 40.0963 133.309 42.0947 133.309 44.3206C133.309 49.6434 133.308 54.9658 133.307 60.2886C133.307 61.0329 133.307 61.7773 133.307 62.6708H124.7C124.662 61.948 124.597 61.2785 124.596 60.609C124.59 47.4061 124.591 34.2033 124.594 21.0005C124.594 18.2154 124.602 18.2146 127.485 18.2129C129.34 18.2116 131.196 18.2129 133.366 18.2129C132.905 24.1283 134.206 29.8302 132.339 35.4071L132.939 35.9824C133.203 35.4472 133.386 34.8492 133.745 34.3867C137.032 30.1612 141.458 29.438 146.286 30.7546C150.93 32.021 153.401 35.6193 153.636 40.0841C154.026 47.511 153.742 54.9734 153.742 62.8082L153.743 62.8078Z" fill="white"/>
<path d="M13.9737 26.8892C22.3953 22.148 30.5629 17.5501 39.1882 12.6948C34.8364 10.2322 30.905 8.00768 26.6082 5.576C30.1069 3.62026 33.2648 1.81203 36.4799 0.11032C36.9049 -0.114546 37.7182 0.0333919 38.1886 0.297144C49.6136 6.69653 61.0161 13.1348 72.4208 19.5705C72.4695 19.598 72.4835 19.6859 72.6312 19.9784C69.4166 21.7799 66.21 23.635 62.9289 25.3477C62.4878 25.5781 61.5987 25.2222 61.0381 24.917C57.9344 23.2276 54.8316 21.5292 51.8053 19.7083C50.4082 18.8676 49.3049 18.8114 47.8325 19.6606C40.6301 23.8155 33.3389 27.8179 26.1184 31.9415C24.9528 32.6073 24.0617 32.6681 22.8927 31.9622C20.0587 30.2508 17.14 28.6776 13.9737 26.8892Z" fill="white"/>
<path d="M289.781 40.9675C290.181 35.9836 293.878 32.1326 299.278 30.8126C303.576 29.7622 307.84 29.9401 311.909 31.7691C315.945 33.5832 318.135 36.6548 318.099 41.2016C318.048 47.6999 318.048 54.1995 318.117 60.6973C318.134 62.2621 317.75 63.014 316.036 62.8513C314.728 62.727 313.393 62.7482 312.079 62.845C310.382 62.9701 309.988 62.1543 310.329 60.713C310.557 59.7442 310.842 58.7885 310.913 57.6561C309.106 60.8791 306.383 62.8927 302.855 63.3032C300.222 63.6092 297.394 63.6612 294.857 63.0255C291.311 62.137 289.05 59.5303 288.684 55.7528C288.246 51.2479 289.637 48.2054 293.654 46.6986C297.635 45.2057 301.941 44.586 306.068 43.4532C307.093 43.1717 308.818 42.2964 308.769 41.8551C308.633 40.6407 308.005 39.169 307.07 38.4162C304.689 36.4993 300.916 37.3092 298.862 39.7032C298.325 40.3284 297.344 40.8495 296.528 40.9112C294.337 41.0765 292.124 40.9679 289.781 40.9679V40.9675ZM308.811 48.2667C305.664 49.0043 302.627 49.6024 299.663 50.4571C298.052 50.922 297.234 52.3185 297.344 54.0008C297.455 55.7127 298.582 56.6865 300.176 57.1878C305.557 58.8798 309.716 54.8897 308.811 48.2667H308.811Z" fill="white"/>
<path d="M210.031 48.6788C203.518 48.6788 197.343 48.6788 191.168 48.6788C187.153 48.6788 186.495 49.703 188.16 53.4086C189.31 55.9705 191.272 57.4621 194.123 57.5437C196.902 57.6232 198.983 56.3154 200.084 53.814C200.664 52.4952 201.412 52.1156 202.771 52.1833C204.906 52.2898 207.052 52.2116 209.409 52.2116C208.826 56.047 207.062 58.9533 204.053 60.929C198.427 64.6232 192.353 64.8214 186.412 61.981C180.748 59.2733 178.713 54.1969 178.558 48.1606C178.437 43.4038 179.001 38.9094 182.408 35.2198C186.829 30.433 194.23 28.8733 200.638 31.3794C206.549 33.691 209.998 38.9483 210.03 45.6964C210.034 46.5823 210.03 47.4679 210.03 48.6788H210.031ZM187.727 43.3256H200.854C200.728 39.1791 198.034 36.4296 194.297 36.4777C190.596 36.5255 187.7 39.4902 187.727 43.3256Z" fill="white"/>
<path d="M387.935 52.2306C387.147 58.2006 382.223 62.9929 376.089 63.4917C373.17 63.7288 370.061 63.6316 367.256 62.8809C361.059 61.2227 357.453 55.9646 357.202 48.5301C357.108 45.7484 357.353 42.8154 358.164 40.1703C360.248 33.3753 367.726 29.1873 375.023 30.3358C383.211 31.6245 388.335 37.0002 388.531 44.6422C388.659 49.6079 388.922 48.6133 384.711 48.6628C379.159 48.7279 373.606 48.7405 368.055 48.6463C366.171 48.6142 365.79 49.3995 366.05 51.0234C366.606 54.4987 368.816 56.9879 371.883 57.4968C374.873 57.993 377.136 56.6413 379.012 53.3085C379.251 52.8824 379.715 52.2915 380.093 52.2784C382.692 52.1879 385.296 52.231 387.936 52.231L387.935 52.2306ZM379.431 43.3247C379.428 39.3832 376.816 36.5974 373.217 36.4862C369.386 36.3678 366.512 39.1508 366.313 43.3247H379.431Z" fill="white"/>
<path d="M243.888 48.6788C237.325 48.6788 230.868 48.6771 224.411 48.6797C221.307 48.6809 221.055 49.0035 221.764 52.0205C222.46 54.984 224.745 57.1468 227.577 57.5226C230.413 57.8992 232.847 56.5813 234.274 53.65C234.814 52.5404 235.437 52.1317 236.642 52.1883C238.652 52.283 240.67 52.2243 242.684 52.2475C242.872 52.2496 243.059 52.3781 243.43 52.5163C243.188 54.9299 242.11 56.9676 240.57 58.7657C236.518 63.4967 228.731 65.1621 222.134 62.7659C216.401 60.6838 212.841 55.465 212.755 48.9155C212.728 46.8461 212.591 44.7297 212.947 42.7119C214.35 34.7414 221.173 29.64 229.547 30.2449C240.053 31.004 245.288 39.3482 243.889 48.6784L243.888 48.6788ZM221.837 43.2161H235.049C234.427 38.5789 231.863 36.2613 227.904 36.5209C224.483 36.7453 221.859 39.6064 221.837 43.2161Z" fill="white"/>
<path d="M121.567 18.212V25.4403C118.071 25.4403 114.685 25.5692 111.314 25.3938C109.16 25.2818 108.639 26.0113 108.658 28.085C108.753 38.797 108.691 49.5102 108.683 60.2231C108.683 60.9716 108.683 61.7206 108.683 62.7824C105.897 62.7824 103.286 62.8526 100.689 62.6932C100.365 62.6734 99.8715 61.4353 99.8711 60.7612C99.8622 50.9474 99.9244 41.1336 99.9689 31.3198C99.9744 30.1447 99.8995 28.9638 99.9951 27.7963C100.138 26.0506 99.5616 25.3101 97.662 25.401C94.6129 25.5468 91.5502 25.3942 88.4956 25.4585C87.2399 25.4847 86.8407 25.0637 86.8001 23.7982C86.6201 18.2103 86.5799 18.2116 92.2344 18.2116C101.195 18.2116 110.155 18.2116 119.116 18.2116H121.568L121.567 18.212Z" fill="white"/>
<path d="M238.386 18.3092C239.161 18.2716 239.775 18.2163 240.388 18.2158C250.531 18.2103 260.674 18.2577 270.817 18.1702C272.665 18.1541 273.316 18.7011 273.174 20.5093C273.052 22.0698 273.149 23.6477 273.149 25.4403C269.644 25.4403 266.327 25.4378 263.011 25.4411C261.081 25.4431 260.114 26.3788 260.109 28.2482C260.098 38.8245 260.092 49.4008 260.083 59.9775C260.082 60.7979 260.083 61.6179 260.083 62.779C257.393 62.779 254.852 62.8543 252.327 62.6894C251.988 62.6674 251.478 61.4328 251.473 60.7565C251.421 53.8444 251.458 46.9315 251.469 40.019C251.476 35.8712 251.426 31.7226 251.514 27.5769C251.548 25.9686 251.021 25.368 249.364 25.4124C245.764 25.5083 242.159 25.442 238.386 25.442V18.3101L238.386 18.3092Z" fill="white"/>
<path d="M177.956 37.7834C177.005 37.8248 176.328 37.8785 175.652 37.8802C170.764 37.8941 168.024 40.4294 167.906 45.3359C167.784 50.3729 167.767 55.4172 167.899 60.4534C167.95 62.4168 167.296 62.987 165.421 62.8589C163.37 62.7186 161.302 62.8272 159.138 62.8272C159.079 61.9413 159.004 61.3385 159.004 60.7354C158.996 51.5531 159.031 42.3703 158.967 33.1884C158.956 31.6106 159.316 30.9123 161.038 31.0505C162.83 31.1942 164.644 31.1084 166.447 31.0763C167.551 31.0564 167.999 31.5096 167.742 32.5933C167.446 33.8461 167.142 35.0977 167.175 36.5728C167.624 35.9688 168.1 35.383 168.516 34.7574C170.326 32.0379 172.916 30.6528 176.118 30.2631C177.407 30.1063 178.058 30.4689 177.98 31.9204C177.88 33.7747 177.956 35.6387 177.956 37.7834Z" fill="white"/>
<path d="M277.778 31.0822C277.349 33.0929 277 34.7274 276.651 36.3619L276.984 36.5771C277.423 35.9587 277.879 35.3517 278.297 34.7202C280.106 31.9914 282.725 30.6464 285.917 30.2614C287.101 30.1185 287.813 30.4689 287.693 31.8126C287.649 32.2919 287.701 32.7789 287.687 33.2616C287.647 34.6374 288.089 36.405 287.397 37.2698C286.799 38.0171 284.907 37.7487 283.585 37.9119C280.096 38.3426 277.674 41.3014 277.603 45.4846C277.52 50.3848 277.578 55.2874 277.574 60.1888C277.574 60.9391 277.574 61.6889 277.574 62.7824C274.826 62.7824 272.219 62.8555 269.627 62.6928C269.291 62.6717 268.781 61.4353 268.776 60.759C268.716 52.8203 268.738 44.8811 268.737 36.9418C268.737 33.0343 270.677 31.081 274.558 31.0818C275.448 31.0818 276.338 31.0818 277.778 31.0818L277.778 31.0822Z" fill="white"/>
<path d="M400.833 31.0962C400.436 33.1643 400.123 34.7942 399.81 36.4245L400.123 36.5741C400.58 35.9299 401.051 35.2947 401.493 34.6395C403.279 31.9893 405.847 30.6693 408.961 30.2677C410.275 30.0986 411.093 30.37 410.991 31.9876C410.875 33.8351 410.964 35.6958 410.964 37.7162C410.201 37.7834 409.597 37.9271 409.012 37.8743C402.906 37.3206 400.793 41.5524 400.662 46.1174C400.523 50.9524 400.558 55.7955 400.661 60.6318C400.697 62.3462 400.191 62.9992 398.441 62.8547C396.854 62.7237 395.245 62.7685 393.65 62.8412C392.352 62.9003 391.987 62.3382 391.991 61.1209C392.023 51.6507 391.991 42.1805 392.055 32.7108C392.059 32.1702 392.704 31.1921 393.096 31.1685C395.502 31.0239 397.921 31.0962 400.832 31.0962H400.833Z" fill="white"/>
<path d="M74.0821 21.5191C74.0821 25.4428 74.1067 28.8877 74.0537 32.3317C74.0465 32.8034 73.7845 33.4877 73.4195 33.7033C70.2815 35.5567 67.0923 37.3252 63.5081 39.3507C63.5081 35.3111 63.4911 31.6938 63.5369 28.077C63.5411 27.7494 63.8739 27.298 64.1804 27.1213C67.3404 25.2987 70.5262 23.5217 74.0821 21.5191Z" fill="white"/>
<path d="M36.1454 28.6167C36.1454 32.5143 36.1806 36.0065 36.1056 39.4965C36.095 39.9936 35.6687 40.6813 35.2318 40.9383C32.1514 42.7512 29.0176 44.4744 25.5587 46.4183C25.5587 42.4781 25.5426 38.868 25.5849 35.2587C25.5888 34.921 25.88 34.4463 26.1772 34.2739C29.3804 32.4187 32.6116 30.6114 36.145 28.6163L36.1454 28.6167Z" fill="white"/>
<path d="M48.6928 46.4048C45.1098 44.3836 41.9655 42.6527 38.8825 40.8195C38.4693 40.5739 38.1615 39.8178 38.1513 39.2911C38.0866 35.913 38.1183 32.5333 38.1183 28.6235C39.6158 29.4549 40.8329 30.1088 42.0281 30.7995C44.1843 32.0451 47.1741 32.8334 48.2436 34.7029C49.3596 36.6544 48.6318 39.6563 48.6885 42.1991C48.716 43.4287 48.6928 44.6596 48.6928 46.4048Z" fill="white"/>
<path d="M47.6907 48.186C44.2495 50.1265 41.1348 51.9212 37.9701 53.6238C37.5235 53.8639 36.7208 53.8613 36.2733 53.6208C33.1675 51.9491 30.112 50.1844 26.5875 48.1936C29.1459 46.7586 31.5159 45.674 33.6031 44.1942C36.062 42.4511 38.1649 42.3576 40.6517 44.1671C42.7063 45.6622 45.0806 46.7218 47.6907 48.186Z" fill="white"/>
<path d="M60.3197 26.8799C56.8642 28.8319 53.7486 30.6325 50.5801 32.3346C50.1369 32.5726 49.3248 32.5236 48.8655 32.275C45.7609 30.5949 42.7055 28.8247 39.2504 26.8664C42.8054 24.8832 46.0763 23.031 49.3888 21.2553C49.7008 21.0879 50.3312 21.2976 50.716 21.5089C53.8079 23.2064 56.8765 24.9466 60.3197 26.8799Z" fill="white"/>
<path d="M22.4012 19.784C18.9182 21.7461 15.7582 23.5699 12.5401 25.2864C12.1172 25.5121 11.3107 25.3545 10.8331 25.0971C7.78911 23.4566 4.78702 21.7385 1.32599 19.7958C3.29422 18.6871 5.14222 17.9436 6.6257 16.7508C10.207 13.8719 13.5495 13.9096 17.1235 16.7589C18.6011 17.9364 20.4313 18.6761 22.4016 19.7836L22.4012 19.784Z" fill="white"/>
<path d="M23.3606 46.3824C19.825 44.3831 16.7141 42.6421 13.6312 40.8529C13.3297 40.6779 13.0249 40.2092 13.0207 39.8727C12.9766 36.3133 12.9936 32.7531 12.9936 28.6975C16.5185 30.6929 19.6743 32.4674 22.8102 34.2768C23.0651 34.4239 23.3352 34.8086 23.3377 35.0854C23.3728 38.6947 23.361 42.304 23.361 46.382L23.3606 46.3824Z" fill="white"/>
<path d="M25.629 17.9842V7.40071C28.7809 9.16752 31.7034 10.8054 35.0531 12.6829C31.8139 14.5051 28.8741 16.1586 25.629 17.9842Z" fill="white"/>
<path d="M72.9648 48.2168C69.652 50.0656 66.7312 51.6964 63.5898 53.4496V42.9587C66.7494 44.731 69.6626 46.3647 72.9648 48.2168Z" fill="white"/>
<path d="M13.0943 57.1717C16.2543 58.9436 19.165 60.5756 22.3868 62.3821C19.1718 64.1933 16.262 65.8329 13.0943 67.6175V57.1717Z" fill="white"/>
</g>
<defs>
<clipPath id="clip0_74_28">
<rect width="411" height="82" fill="white"/>
</clipPath>
</defs>
</svg>